<svg xmlns="http://www.w3.org/2000/svg" width="1024" height="1024" viewBox="0 0 1024 1024">
  <!-- The Prem Lab mark (the bars and orange dot of the app's favicon, src/app/web/favicon.svg) on a macOS-style icon plate:
       a superellipse (n = 5) inside the usual 100 px margin, with a soft shadow.
       prem-lab.icns is made from it: draw it at 1024 x 1024 on a transparent background (headless Chrome, window 1024 x 1024,
       default background colour 00000000, screenshot of this file), scale that with `sips -z N N` into an .iconset (16 to 512 px
       and their @2x) and pack the set with `iconutil -c icns`. -->
  <defs>
    <linearGradient id="plate" x1="0" y1="0" x2="0" y2="1">
      <stop offset="0" stop-color="#1b2533"/>
      <stop offset="1" stop-color="#0a0e14"/>
    </linearGradient>
    <linearGradient id="rim" x1="0" y1="0" x2="0" y2="1">
      <stop offset="0" stop-color="#fff" stop-opacity=".22"/>
      <stop offset=".35" stop-color="#fff" stop-opacity=".04"/>
      <stop offset="1" stop-color="#fff" stop-opacity="0"/>
    </linearGradient>
    <linearGradient id="bars" x1="0" y1="0" x2="0" y2="1">
      <stop offset="0" stop-color="#63a5f3"/>
      <stop offset="1" stop-color="#2f79d6"/>
    </linearGradient>
    <radialGradient id="glow" cx=".5" cy=".5" r=".5">
      <stop offset="0" stop-color="#3987e5" stop-opacity=".28"/>
      <stop offset="1" stop-color="#3987e5" stop-opacity="0"/>
    </radialGradient>
    <filter id="lift" x="-20%" y="-20%" width="140%" height="150%">
      <feDropShadow dx="0" dy="14" stdDeviation="16" flood-color="#000" flood-opacity=".38"/>
    </filter>
    <filter id="dot" x="-100%" y="-100%" width="300%" height="300%">
      <feGaussianBlur stdDeviation="14"/>
    </filter>
    <path id="shape" d="M924.0 512.0L923.9 608.0L923.8 638.6L923.5 660.9L923.1 679.0L922.6 694.5L922.0 708.2L921.2 720.5L920.4 731.8L919.4 742.2L918.3 751.9L917.1 761.0L915.8 769.6L914.4 777.6L912.8 785.3L911.2 792.6L909.4 799.5L907.5 806.1L905.4 812.4L903.3 818.5L901.0 824.2L898.5 829.8L896.0 835.1L893.3 840.2L890.5 845.1L887.6 849.8L884.5 854.3L881.2 858.7L877.9 862.8L874.3 866.8L870.7 870.7L866.8 874.3L862.8 877.9L858.7 881.2L854.3 884.5L849.8 887.6L845.1 890.5L840.2 893.3L835.1 896.0L829.8 898.5L824.2 901.0L818.5 903.3L812.4 905.4L806.1 907.5L799.5 909.4L792.6 911.2L785.3 912.8L777.6 914.4L769.6 915.8L761.0 917.1L751.9 918.3L742.2 919.4L731.8 920.4L720.5 921.2L708.2 922.0L694.5 922.6L679.0 923.1L660.9 923.5L638.6 923.8L608.0 923.9L512.0 924.0L416.0 923.9L385.4 923.8L363.1 923.5L345.0 923.1L329.5 922.6L315.8 922.0L303.5 921.2L292.2 920.4L281.8 919.4L272.1 918.3L263.0 917.1L254.4 915.8L246.4 914.4L238.7 912.8L231.4 911.2L224.5 909.4L217.9 907.5L211.6 905.4L205.5 903.3L199.8 901.0L194.2 898.5L188.9 896.0L183.8 893.3L178.9 890.5L174.2 887.6L169.7 884.5L165.3 881.2L161.2 877.9L157.2 874.3L153.3 870.7L149.7 866.8L146.1 862.8L142.8 858.7L139.5 854.3L136.4 849.8L133.5 845.1L130.7 840.2L128.0 835.1L125.5 829.8L123.0 824.2L120.7 818.5L118.6 812.4L116.5 806.1L114.6 799.5L112.8 792.6L111.2 785.3L109.6 777.6L108.2 769.6L106.9 761.0L105.7 751.9L104.6 742.2L103.6 731.8L102.8 720.5L102.0 708.2L101.4 694.5L100.9 679.0L100.5 660.9L100.2 638.6L100.1 608.0L100.0 512.0L100.1 416.0L100.2 385.4L100.5 363.1L100.9 345.0L101.4 329.5L102.0 315.8L102.8 303.5L103.6 292.2L104.6 281.8L105.7 272.1L106.9 263.0L108.2 254.4L109.6 246.4L111.2 238.7L112.8 231.4L114.6 224.5L116.5 217.9L118.6 211.6L120.7 205.5L123.0 199.8L125.5 194.2L128.0 188.9L130.7 183.8L133.5 178.9L136.4 174.2L139.5 169.7L142.8 165.3L146.1 161.2L149.7 157.2L153.3 153.3L157.2 149.7L161.2 146.1L165.3 142.8L169.7 139.5L174.2 136.4L178.9 133.5L183.8 130.7L188.9 128.0L194.2 125.5L199.8 123.0L205.5 120.7L211.6 118.6L217.9 116.5L224.5 114.6L231.4 112.8L238.7 111.2L246.4 109.6L254.4 108.2L263.0 106.9L272.1 105.7L281.8 104.6L292.2 103.6L303.5 102.8L315.8 102.0L329.5 101.4L345.0 100.9L363.1 100.5L385.4 100.2L416.0 100.1L512.0 100.0L608.0 100.1L638.6 100.2L660.9 100.5L679.0 100.9L694.5 101.4L708.2 102.0L720.5 102.8L731.8 103.6L742.2 104.6L751.9 105.7L761.0 106.9L769.6 108.2L777.6 109.6L785.3 111.2L792.6 112.8L799.5 114.6L806.1 116.5L812.4 118.6L818.5 120.7L824.2 123.0L829.8 125.5L835.1 128.0L840.2 130.7L845.1 133.5L849.8 136.4L854.3 139.5L858.7 142.8L862.8 146.1L866.8 149.7L870.7 153.3L874.3 157.2L877.9 161.2L881.2 165.3L884.5 169.7L887.6 174.2L890.5 178.9L893.3 183.8L896.0 188.9L898.5 194.2L901.0 199.8L903.3 205.5L905.4 211.6L907.5 217.9L909.4 224.5L911.2 231.4L912.8 238.7L914.4 246.4L915.8 254.4L917.1 263.0L918.3 272.1L919.4 281.8L920.4 292.2L921.2 303.5L922.0 315.8L922.6 329.5L923.1 345.0L923.5 363.1L923.8 385.4L923.9 416.0Z"/>
    <clipPath id="clip"><use href="#shape"/></clipPath>
  </defs>
  <use href="#shape" fill="url(#plate)" filter="url(#lift)"/>
  <g clip-path="url(#clip)">
    <ellipse cx="470" cy="640" rx="430" ry="330" fill="url(#glow)"/>
  </g>
  <use href="#shape" fill="none" stroke="url(#rim)" stroke-width="5"/>
  <g transform="translate(512 512) scale(23.6) translate(-15.45 -15)">
    <path d="M6 24V10.5M12 24V6M18 24v-9M24 24V12" stroke="url(#bars)" stroke-width="3" stroke-linecap="round" fill="none"/>
    <circle cx="24" cy="7.5" r="2.4" fill="#eb6834" opacity=".55" filter="url(#dot)"/>
    <circle cx="24" cy="7.5" r="2.4" fill="#f0733f"/>
  </g>
</svg>
