<svg width="1600" height="1200" xmlns="http://www.w3.org/2000/svg" xmlns:xlink="http://www.w3.org/1999/xlink" version="1.1" baseProfile="full" viewBox="0 0 1600 1200">
<rect width="1600" height="1200" x="0" y="0" fill="#08111D"></rect>
<path d="M90 1030.5L1560 1030.5" fill="none" pointer-events="visible" stroke="rgb(143,167,193)" stroke-opacity="0.12" class="zr0-cls-0"></path>
<path d="M90 858.5L1560 858.5" fill="none" pointer-events="visible" stroke="rgb(143,167,193)" stroke-opacity="0.12" class="zr0-cls-0"></path>
<path d="M90 686.5L1560 686.5" fill="none" pointer-events="visible" stroke="rgb(143,167,193)" stroke-opacity="0.12" class="zr0-cls-0"></path>
<path d="M90 514.5L1560 514.5" fill="none" pointer-events="visible" stroke="rgb(143,167,193)" stroke-opacity="0.12" class="zr0-cls-0"></path>
<path d="M90 342.5L1560 342.5" fill="none" pointer-events="visible" stroke="rgb(143,167,193)" stroke-opacity="0.12" class="zr0-cls-0"></path>
<path d="M90 170.5L1560 170.5" fill="none" pointer-events="visible" stroke="rgb(143,167,193)" stroke-opacity="0.12" class="zr0-cls-0"></path>
<text dominant-baseline="central" text-anchor="middle" style="font-size:13px;font-family:sans-serif;" y="-6.5" transform="translate(90 155)" fill="#9FB0C6">xG</text>
<path d="M90 1030.5L1560 1030.5" fill="none" pointer-events="visible" stroke="#233247" stroke-linecap="round" class="zr0-cls-0"></path>
<text dominant-baseline="central" text-anchor="end" style="font-size:12px;font-family:sans-serif;" transform="translate(82 1030)" fill="#8EA0B8">0</text>
<text dominant-baseline="central" text-anchor="end" style="font-size:12px;font-family:sans-serif;" transform="translate(82 858)" fill="#8EA0B8">1</text>
<text dominant-baseline="central" text-anchor="end" style="font-size:12px;font-family:sans-serif;" transform="translate(82 686)" fill="#8EA0B8">2</text>
<text dominant-baseline="central" text-anchor="end" style="font-size:12px;font-family:sans-serif;" transform="translate(82 514)" fill="#8EA0B8">3</text>
<text dominant-baseline="central" text-anchor="end" style="font-size:12px;font-family:sans-serif;" transform="translate(82 342)" fill="#8EA0B8">4</text>
<text dominant-baseline="central" text-anchor="end" style="font-size:12px;font-family:sans-serif;" transform="translate(82 170)" fill="#8EA0B8">5</text>
<text dominant-baseline="central" text-anchor="end" style="font-size:11px;font-family:sans-serif;" xml:space="preserve" transform="matrix(0.574,-0.819,0.819,0.574,112.9688,1038)" fill="#8EA0B8">1. Arsenal H</text>
<text dominant-baseline="central" text-anchor="end" style="font-size:11px;font-family:sans-serif;" xml:space="preserve" transform="matrix(0.574,-0.819,0.819,0.574,158.9063,1038)" fill="#8EA0B8">2. Fulham A</text>
<text dominant-baseline="central" text-anchor="end" style="font-size:11px;font-family:sans-serif;" xml:space="preserve" transform="matrix(0.574,-0.819,0.819,0.574,204.8438,1038)" fill="#8EA0B8">3. Burnley H</text>
<text dominant-baseline="central" text-anchor="end" style="font-size:11px;font-family:sans-serif;" xml:space="preserve" transform="matrix(0.574,-0.819,0.819,0.574,250.7813,1038)" fill="#8EA0B8">4. Manchester  A</text>
<text dominant-baseline="central" text-anchor="end" style="font-size:11px;font-family:sans-serif;" xml:space="preserve" transform="matrix(0.574,-0.819,0.819,0.574,296.7188,1038)" fill="#8EA0B8">5. Chelsea H</text>
<text dominant-baseline="central" text-anchor="end" style="font-size:11px;font-family:sans-serif;" xml:space="preserve" transform="matrix(0.574,-0.819,0.819,0.574,342.6563,1038)" fill="#8EA0B8">6. Brentford A</text>
<text dominant-baseline="central" text-anchor="end" style="font-size:11px;font-family:sans-serif;" xml:space="preserve" transform="matrix(0.574,-0.819,0.819,0.574,388.5938,1038)" fill="#8EA0B8">7. Sunderland H</text>
<text dominant-baseline="central" text-anchor="end" style="font-size:11px;font-family:sans-serif;" xml:space="preserve" transform="matrix(0.574,-0.819,0.819,0.574,434.5313,1038)" fill="#8EA0B8">8. Liverpool A</text>
<text dominant-baseline="central" text-anchor="end" style="font-size:11px;font-family:sans-serif;" xml:space="preserve" transform="matrix(0.574,-0.819,0.819,0.574,480.4688,1038)" fill="#8EA0B8">9. Brighton H</text>
<text dominant-baseline="central" text-anchor="end" style="font-size:11px;font-family:sans-serif;" xml:space="preserve" transform="matrix(0.574,-0.819,0.819,0.574,526.4063,1038)" fill="#8EA0B8">10. Nottingham  A</text>
<text dominant-baseline="central" text-anchor="end" style="font-size:11px;font-family:sans-serif;" xml:space="preserve" transform="matrix(0.574,-0.819,0.819,0.574,572.3438,1038)" fill="#8EA0B8">11. Tottenham A</text>
<text dominant-baseline="central" text-anchor="end" style="font-size:11px;font-family:sans-serif;" xml:space="preserve" transform="matrix(0.574,-0.819,0.819,0.574,618.2813,1038)" fill="#8EA0B8">12. Everton H</text>
<text dominant-baseline="central" text-anchor="end" style="font-size:11px;font-family:sans-serif;" xml:space="preserve" transform="matrix(0.574,-0.819,0.819,0.574,664.2188,1038)" fill="#8EA0B8">13. Crystal Pal A</text>
<text dominant-baseline="central" text-anchor="end" style="font-size:11px;font-family:sans-serif;" xml:space="preserve" transform="matrix(0.574,-0.819,0.819,0.574,710.1563,1038)" fill="#8EA0B8">14. West Ham H</text>
<text dominant-baseline="central" text-anchor="end" style="font-size:11px;font-family:sans-serif;" xml:space="preserve" transform="matrix(0.574,-0.819,0.819,0.574,756.0938,1038)" fill="#8EA0B8">15. Wolverhampt A</text>
<text dominant-baseline="central" text-anchor="end" style="font-size:11px;font-family:sans-serif;" xml:space="preserve" transform="matrix(0.574,-0.819,0.819,0.574,802.0313,1038)" fill="#8EA0B8">16. Bournemouth H</text>
<text dominant-baseline="central" text-anchor="end" style="font-size:11px;font-family:sans-serif;" xml:space="preserve" transform="matrix(0.574,-0.819,0.819,0.574,847.9688,1038)" fill="#8EA0B8">17. Aston Villa A</text>
<text dominant-baseline="central" text-anchor="end" style="font-size:11px;font-family:sans-serif;" xml:space="preserve" transform="matrix(0.574,-0.819,0.819,0.574,893.9062,1038)" fill="#8EA0B8">18. Newcastle U H</text>
<text dominant-baseline="central" text-anchor="end" style="font-size:11px;font-family:sans-serif;" xml:space="preserve" transform="matrix(0.574,-0.819,0.819,0.574,939.8438,1038)" fill="#8EA0B8">19. Wolverhampt H</text>
<text dominant-baseline="central" text-anchor="end" style="font-size:11px;font-family:sans-serif;" xml:space="preserve" transform="matrix(0.574,-0.819,0.819,0.574,985.7813,1038)" fill="#8EA0B8">20. Leeds A</text>
<text dominant-baseline="central" text-anchor="end" style="font-size:11px;font-family:sans-serif;" xml:space="preserve" transform="matrix(0.574,-0.819,0.819,0.574,1031.7188,1038)" fill="#8EA0B8">21. Burnley A</text>
<text dominant-baseline="central" text-anchor="end" style="font-size:11px;font-family:sans-serif;" xml:space="preserve" transform="matrix(0.574,-0.819,0.819,0.574,1077.6563,1038)" fill="#8EA0B8">22. Manchester  H</text>
<text dominant-baseline="central" text-anchor="end" style="font-size:11px;font-family:sans-serif;" xml:space="preserve" transform="matrix(0.574,-0.819,0.819,0.574,1123.5938,1038)" fill="#8EA0B8">23. Arsenal A</text>
<text dominant-baseline="central" text-anchor="end" style="font-size:11px;font-family:sans-serif;" xml:space="preserve" transform="matrix(0.574,-0.819,0.819,0.574,1169.5313,1038)" fill="#8EA0B8">24. Fulham H</text>
<text dominant-baseline="central" text-anchor="end" style="font-size:11px;font-family:sans-serif;" xml:space="preserve" transform="matrix(0.574,-0.819,0.819,0.574,1215.4688,1038)" fill="#8EA0B8">25. Tottenham H</text>
<text dominant-baseline="central" text-anchor="end" style="font-size:11px;font-family:sans-serif;" xml:space="preserve" transform="matrix(0.574,-0.819,0.819,0.574,1261.4063,1038)" fill="#8EA0B8">26. West Ham A</text>
<text dominant-baseline="central" text-anchor="end" style="font-size:11px;font-family:sans-serif;" xml:space="preserve" transform="matrix(0.574,-0.819,0.819,0.574,1307.3438,1038)" fill="#8EA0B8">27. Everton A</text>
<text dominant-baseline="central" text-anchor="end" style="font-size:11px;font-family:sans-serif;" xml:space="preserve" transform="matrix(0.574,-0.819,0.819,0.574,1353.2813,1038)" fill="#8EA0B8">28. Crystal Pal H</text>
<text dominant-baseline="central" text-anchor="end" style="font-size:11px;font-family:sans-serif;" xml:space="preserve" transform="matrix(0.574,-0.819,0.819,0.574,1399.2188,1038)" fill="#8EA0B8">29. Newcastle U A</text>
<text dominant-baseline="central" text-anchor="end" style="font-size:11px;font-family:sans-serif;" xml:space="preserve" transform="matrix(0.574,-0.819,0.819,0.574,1445.1563,1038)" fill="#8EA0B8">30. Aston Villa H</text>
<text dominant-baseline="central" text-anchor="end" style="font-size:11px;font-family:sans-serif;" xml:space="preserve" transform="matrix(0.574,-0.819,0.819,0.574,1491.0938,1038)" fill="#8EA0B8">31. Bournemouth A</text>
<text dominant-baseline="central" text-anchor="end" style="font-size:11px;font-family:sans-serif;" xml:space="preserve" transform="matrix(0.574,-0.819,0.819,0.574,1537.0313,1038)" fill="#8EA0B8">32. Leeds H</text>
<path d="M103.6 823.8L122.3 823.8A4 4 0 0 1 126.3 827.8L126.3 1030L99.6 1030L99.6 827.8A4 4 0 0 1 103.6 823.8" fill="#D74C5B" ecmeta_series_index="0" ecmeta_data_index="0" ecmeta_ssr_type="chart" class="zr0-cls-1"></path>
<path d="M149.6 929.7L168.2 929.7A4 4 0 0 1 172.2 933.7L172.2 1030L145.6 1030L145.6 933.7A4 4 0 0 1 149.6 929.7" fill="#D74C5B" ecmeta_series_index="0" ecmeta_data_index="1" ecmeta_ssr_type="chart" class="zr0-cls-1"></path>
<path d="M195.5 532.6L214.2 532.6A4 4 0 0 1 218.2 536.6L218.2 1030L191.5 1030L191.5 536.6A4 4 0 0 1 195.5 532.6" fill="#D74C5B" ecmeta_series_index="0" ecmeta_data_index="2" ecmeta_ssr_type="chart" class="zr0-cls-1"></path>
<path d="M241.5 843.7L260.1 843.7A4 4 0 0 1 264.1 847.7L264.1 1030L237.5 1030L237.5 847.7A4 4 0 0 1 241.5 843.7" fill="#D74C5B" ecmeta_series_index="0" ecmeta_data_index="3" ecmeta_ssr_type="chart" class="zr0-cls-1"></path>
<path d="M287.4 897.2L306 897.2A4 4 0 0 1 310 901.2L310 1030L283.4 1030L283.4 901.2A4 4 0 0 1 287.4 897.2" fill="#D74C5B" ecmeta_series_index="0" ecmeta_data_index="4" ecmeta_ssr_type="chart" class="zr0-cls-1"></path>
<path d="M333.3 615.1L352 615.1A4 4 0 0 1 356 619.1L356 1030L329.3 1030L329.3 619.1A4 4 0 0 1 333.3 615.1" fill="#D74C5B" ecmeta_series_index="0" ecmeta_data_index="5" ecmeta_ssr_type="chart" class="zr0-cls-1"></path>
<path d="M379.3 726.8L397.9 726.8A4 4 0 0 1 401.9 730.8L401.9 1030L375.3 1030L375.3 730.8A4 4 0 0 1 379.3 726.8" fill="#D74C5B" ecmeta_series_index="0" ecmeta_data_index="6" ecmeta_ssr_type="chart" class="zr0-cls-1"></path>
<path d="M425.2 734.3L443.9 734.3A4 4 0 0 1 447.9 738.3L447.9 1030L421.2 1030L421.2 738.3A4 4 0 0 1 425.2 734.3" fill="#D74C5B" ecmeta_series_index="0" ecmeta_data_index="7" ecmeta_ssr_type="chart" class="zr0-cls-1"></path>
<path d="M471.1 709.9L489.8 709.9A4 4 0 0 1 493.8 713.9L493.8 1030L467.1 1030L467.1 713.9A4 4 0 0 1 471.1 709.9" fill="#D74C5B" ecmeta_series_index="0" ecmeta_data_index="8" ecmeta_ssr_type="chart" class="zr0-cls-1"></path>
<path d="M517.1 935.6L535.7 935.6A4 4 0 0 1 539.7 939.6L539.7 1030L513.1 1030L513.1 939.6A4 4 0 0 1 517.1 935.6" fill="#D74C5B" ecmeta_series_index="0" ecmeta_data_index="9" ecmeta_ssr_type="chart" class="zr0-cls-1"></path>
<path d="M563 930.4L581.7 930.4A4 4 0 0 1 585.7 934.4L585.7 1030L559 1030L559 934.4A4 4 0 0 1 563 930.4" fill="#D74C5B" ecmeta_series_index="0" ecmeta_data_index="10" ecmeta_ssr_type="chart" class="zr0-cls-1"></path>
<path d="M609 665.4L627.6 665.4A4 4 0 0 1 631.6 669.4L631.6 1030L605 1030L605 669.4A4 4 0 0 1 609 665.4" fill="#D74C5B" ecmeta_series_index="0" ecmeta_data_index="11" ecmeta_ssr_type="chart" class="zr0-cls-1"></path>
<path d="M654.9 711.3L673.5 711.3A4 4 0 0 1 677.5 715.3L677.5 1030L650.9 1030L650.9 715.3A4 4 0 0 1 654.9 711.3" fill="#D74C5B" ecmeta_series_index="0" ecmeta_data_index="12" ecmeta_ssr_type="chart" class="zr0-cls-1"></path>
<path d="M700.8 632.5L719.5 632.5A4 4 0 0 1 723.5 636.5L723.5 1030L696.8 1030L696.8 636.5A4 4 0 0 1 700.8 632.5" fill="#D74C5B" ecmeta_series_index="0" ecmeta_data_index="13" ecmeta_ssr_type="chart" class="zr0-cls-1"></path>
<path d="M746.8 588.5L765.4 588.5A4 4 0 0 1 769.4 592.5L769.4 1030L742.8 1030L742.8 592.5A4 4 0 0 1 746.8 588.5" fill="#D74C5B" ecmeta_series_index="0" ecmeta_data_index="14" ecmeta_ssr_type="chart" class="zr0-cls-1"></path>
<path d="M792.7 551.3L811.4 551.3A4 4 0 0 1 815.4 555.3L815.4 1030L788.7 1030L788.7 555.3A4 4 0 0 1 792.7 551.3" fill="#D74C5B" ecmeta_series_index="0" ecmeta_data_index="15" ecmeta_ssr_type="chart" class="zr0-cls-1"></path>
<path d="M838.6 818.6L857.3 818.6A4 4 0 0 1 861.3 822.6L861.3 1030L834.6 1030L834.6 822.6A4 4 0 0 1 838.6 818.6" fill="#D74C5B" ecmeta_series_index="0" ecmeta_data_index="16" ecmeta_ssr_type="chart" class="zr0-cls-1"></path>
<path d="M884.6 950.2L903.2 950.2A4 4 0 0 1 907.2 954.2L907.2 1030L880.6 1030L880.6 954.2A4 4 0 0 1 884.6 950.2" fill="#D74C5B" ecmeta_series_index="0" ecmeta_data_index="17" ecmeta_ssr_type="chart" class="zr0-cls-1"></path>
<path d="M930.5 885.2L949.2 885.2A4 4 0 0 1 953.2 889.2L953.2 1030L926.5 1030L926.5 889.2A4 4 0 0 1 930.5 885.2" fill="#D74C5B" ecmeta_series_index="0" ecmeta_data_index="18" ecmeta_ssr_type="chart" class="zr0-cls-1"></path>
<path d="M976.5 815.9L995.1 815.9A4 4 0 0 1 999.1 819.9L999.1 1030L972.5 1030L972.5 819.9A4 4 0 0 1 976.5 815.9" fill="#D74C5B" ecmeta_series_index="0" ecmeta_data_index="19" ecmeta_ssr_type="chart" class="zr0-cls-1"></path>
<path d="M1022.4 643L1041 643A4 4 0 0 1 1045 647L1045 1030L1018.4 1030L1018.4 647A4 4 0 0 1 1022.4 643" fill="#D74C5B" ecmeta_series_index="0" ecmeta_data_index="20" ecmeta_ssr_type="chart" class="zr0-cls-1"></path>
<path d="M1068.3 571.4L1087 571.4A4 4 0 0 1 1091 575.4L1091 1030L1064.3 1030L1064.3 575.4A4 4 0 0 1 1068.3 571.4" fill="#D74C5B" ecmeta_series_index="0" ecmeta_data_index="21" ecmeta_ssr_type="chart" class="zr0-cls-1"></path>
<path d="M1114.3 919.7L1132.9 919.7A4 4 0 0 1 1136.9 923.7L1136.9 1030L1110.3 1030L1110.3 923.7A4 4 0 0 1 1114.3 919.7" fill="#D74C5B" ecmeta_series_index="0" ecmeta_data_index="22" ecmeta_ssr_type="chart" class="zr0-cls-1"></path>
<path d="M1160.2 806.4L1178.9 806.4A4 4 0 0 1 1182.9 810.4L1182.9 1030L1156.2 1030L1156.2 810.4A4 4 0 0 1 1160.2 806.4" fill="#D74C5B" ecmeta_series_index="0" ecmeta_data_index="23" ecmeta_ssr_type="chart" class="zr0-cls-1"></path>
<path d="M1206.1 742.6L1224.8 742.6A4 4 0 0 1 1228.8 746.6L1228.8 1030L1202.1 1030L1202.1 746.6A4 4 0 0 1 1206.1 742.6" fill="#D74C5B" ecmeta_series_index="0" ecmeta_data_index="24" ecmeta_ssr_type="chart" class="zr0-cls-1"></path>
<path d="M1252.1 923.9L1270.7 923.9A4 4 0 0 1 1274.7 927.9L1274.7 1030L1248.1 1030L1248.1 927.9A4 4 0 0 1 1252.1 923.9" fill="#D74C5B" ecmeta_series_index="0" ecmeta_data_index="25" ecmeta_ssr_type="chart" class="zr0-cls-1"></path>
<path d="M1298 785.8L1316.7 785.8A4 4 0 0 1 1320.7 789.8L1320.7 1030L1294 1030L1294 789.8A4 4 0 0 1 1298 785.8" fill="#D74C5B" ecmeta_series_index="0" ecmeta_data_index="26" ecmeta_ssr_type="chart" class="zr0-cls-1"></path>
<path d="M1344 857.7L1362.6 857.7A4 4 0 0 1 1366.6 861.7L1366.6 1030L1340 1030L1340 861.7A4 4 0 0 1 1344 857.7" fill="#D74C5B" ecmeta_series_index="0" ecmeta_data_index="27" ecmeta_ssr_type="chart" class="zr0-cls-1"></path>
<path d="M1389.9 817.8L1408.5 817.8A4 4 0 0 1 1412.5 821.8L1412.5 1030L1385.9 1030L1385.9 821.8A4 4 0 0 1 1389.9 817.8" fill="#D74C5B" ecmeta_series_index="0" ecmeta_data_index="28" ecmeta_ssr_type="chart" class="zr0-cls-1"></path>
<path d="M1435.8 765.5L1454.5 765.5A4 4 0 0 1 1458.5 769.5L1458.5 1030L1431.8 1030L1431.8 769.5A4 4 0 0 1 1435.8 765.5" fill="#D74C5B" ecmeta_series_index="0" ecmeta_data_index="29" ecmeta_ssr_type="chart" class="zr0-cls-1"></path>
<path d="M1481.8 897.4L1500.4 897.4A4 4 0 0 1 1504.4 901.4L1504.4 1030L1477.8 1030L1477.8 901.4A4 4 0 0 1 1481.8 897.4" fill="#D74C5B" ecmeta_series_index="0" ecmeta_data_index="30" ecmeta_ssr_type="chart" class="zr0-cls-1"></path>
<path d="M1527.7 916.7L1546.4 916.7A4 4 0 0 1 1550.4 920.7L1550.4 1030L1523.7 1030L1523.7 920.7A4 4 0 0 1 1527.7 916.7" fill="#D74C5B" ecmeta_series_index="0" ecmeta_data_index="31" ecmeta_ssr_type="chart" class="zr0-cls-1"></path>
<path d="M103.6 791.6L122.3 791.6A4 4 0 0 1 126.3 795.6L126.3 823.8L99.6 823.8L99.6 795.6A4 4 0 0 1 103.6 791.6" fill="#E6C36A" ecmeta_series_index="1" ecmeta_data_index="0" ecmeta_ssr_type="chart" class="zr0-cls-2"></path>
<path d="M149.6 764.1L168.2 764.1A4 4 0 0 1 172.2 768.1L172.2 929.7L145.6 929.7L145.6 768.1A4 4 0 0 1 149.6 764.1" fill="#E6C36A" ecmeta_series_index="1" ecmeta_data_index="1" ecmeta_ssr_type="chart" class="zr0-cls-2"></path>
<path d="M195.5 337.7L214.2 337.7A4 4 0 0 1 218.2 341.7L218.2 532.6L191.5 532.6L191.5 341.7A4 4 0 0 1 195.5 337.7" fill="#E6C36A" ecmeta_series_index="1" ecmeta_data_index="2" ecmeta_ssr_type="chart" class="zr0-cls-2"></path>
<path d="M241.5 763.2L260.1 763.2A4 4 0 0 1 264.1 767.2L264.1 843.7L237.5 843.7L237.5 767.2A4 4 0 0 1 241.5 763.2" fill="#E6C36A" ecmeta_series_index="1" ecmeta_data_index="3" ecmeta_ssr_type="chart" class="zr0-cls-2"></path>
<path d="M287.4 798.5L306 798.5A4 4 0 0 1 310 802.5L310 897.2L283.4 897.2L283.4 802.5A4 4 0 0 1 287.4 798.5" fill="#E6C36A" ecmeta_series_index="1" ecmeta_data_index="4" ecmeta_ssr_type="chart" class="zr0-cls-2"></path>
<path d="M333.3 473.2L352 473.2A4 4 0 0 1 356 477.2L356 615.1L329.3 615.1L329.3 477.2A4 4 0 0 1 333.3 473.2" fill="#E6C36A" ecmeta_series_index="1" ecmeta_data_index="5" ecmeta_ssr_type="chart" class="zr0-cls-2"></path>
<path d="M379.3 692.2L397.9 692.2A4 4 0 0 1 401.9 696.2L401.9 726.8L375.3 726.8L375.3 696.2A4 4 0 0 1 379.3 692.2" fill="#E6C36A" ecmeta_series_index="1" ecmeta_data_index="6" ecmeta_ssr_type="chart" class="zr0-cls-2"></path>
<path d="M425.2 592.9L443.9 592.9A4 4 0 0 1 447.9 596.9L447.9 734.3L421.2 734.3L421.2 596.9A4 4 0 0 1 425.2 592.9" fill="#E6C36A" ecmeta_series_index="1" ecmeta_data_index="7" ecmeta_ssr_type="chart" class="zr0-cls-2"></path>
<path d="M471.1 692.4L489.8 692.4A4 4 0 0 1 493.8 696.4L493.8 709.9L467.1 709.9L467.1 696.4A4 4 0 0 1 471.1 692.4" fill="#E6C36A" ecmeta_series_index="1" ecmeta_data_index="8" ecmeta_ssr_type="chart" class="zr0-cls-2"></path>
<path d="M517.1 871.1L535.7 871.1A4 4 0 0 1 539.7 875.1L539.7 935.6L513.1 935.6L513.1 875.1A4 4 0 0 1 517.1 871.1" fill="#E6C36A" ecmeta_series_index="1" ecmeta_data_index="9" ecmeta_ssr_type="chart" class="zr0-cls-2"></path>
<path d="M563 889L581.7 889A4 4 0 0 1 585.7 893L585.7 930.4L559 930.4L559 893A4 4 0 0 1 563 889" fill="#E6C36A" ecmeta_series_index="1" ecmeta_data_index="10" ecmeta_ssr_type="chart" class="zr0-cls-2"></path>
<path d="M609 638.2L627.6 638.2A4 4 0 0 1 631.6 642.2L631.6 665.4L605 665.4L605 642.2A4 4 0 0 1 609 638.2" fill="#E6C36A" ecmeta_series_index="1" ecmeta_data_index="11" ecmeta_ssr_type="chart" class="zr0-cls-2"></path>
<path d="M654.9 677.4L673.5 677.4A4 4 0 0 1 677.5 681.4L677.5 711.3L650.9 711.3L650.9 681.4A4 4 0 0 1 654.9 677.4" fill="#E6C36A" ecmeta_series_index="1" ecmeta_data_index="12" ecmeta_ssr_type="chart" class="zr0-cls-2"></path>
<path d="M700.8 618.9L719.5 618.9A4 4 0 0 1 723.5 622.9L723.5 632.5L696.8 632.5L696.8 622.9A4 4 0 0 1 700.8 618.9" fill="#E6C36A" ecmeta_series_index="1" ecmeta_data_index="13" ecmeta_ssr_type="chart" class="zr0-cls-2"></path>
<path d="M746.8 316.5L765.4 316.5A4 4 0 0 1 769.4 320.5L769.4 588.5L742.8 588.5L742.8 320.5A4 4 0 0 1 746.8 316.5" fill="#E6C36A" ecmeta_series_index="1" ecmeta_data_index="14" ecmeta_ssr_type="chart" class="zr0-cls-2"></path>
<path d="M792.7 476.8L811.4 476.8A4 4 0 0 1 815.4 480.8L815.4 551.3L788.7 551.3L788.7 480.8A4 4 0 0 1 792.7 476.8" fill="#E6C36A" ecmeta_series_index="1" ecmeta_data_index="15" ecmeta_ssr_type="chart" class="zr0-cls-2"></path>
<path d="M838.6 805.4L857.3 805.4A4 4 0 0 1 861.3 809.4L861.3 818.6L834.6 818.6L834.6 809.4A4 4 0 0 1 838.6 805.4" fill="#E6C36A" ecmeta_series_index="1" ecmeta_data_index="16" ecmeta_ssr_type="chart" class="zr0-cls-2"></path>
<path d="M884.6 868.3L903.2 868.3A4 4 0 0 1 907.2 872.3L907.2 950.2L880.6 950.2L880.6 872.3A4 4 0 0 1 884.6 868.3" fill="#E6C36A" ecmeta_series_index="1" ecmeta_data_index="17" ecmeta_ssr_type="chart" class="zr0-cls-2"></path>
<path d="M930.5 835.1L949.2 835.1A4 4 0 0 1 953.2 839.1L953.2 885.2L926.5 885.2L926.5 839.1A4 4 0 0 1 930.5 835.1" fill="#E6C36A" ecmeta_series_index="1" ecmeta_data_index="18" ecmeta_ssr_type="chart" class="zr0-cls-2"></path>
<path d="M976.5 691.5L995.1 691.5A4 4 0 0 1 999.1 695.5L999.1 815.9L972.5 815.9L972.5 695.5A4 4 0 0 1 976.5 691.5" fill="#E6C36A" ecmeta_series_index="1" ecmeta_data_index="19" ecmeta_ssr_type="chart" class="zr0-cls-2"></path>
<path d="M1022.4 594.8L1041 594.8A4 4 0 0 1 1045 598.8L1045 643L1018.4 643L1018.4 598.8A4 4 0 0 1 1022.4 594.8" fill="#E6C36A" ecmeta_series_index="1" ecmeta_data_index="20" ecmeta_ssr_type="chart" class="zr0-cls-2"></path>
<path d="M1068.3 497.8L1087 497.8A4 4 0 0 1 1091 501.8L1091 571.4L1064.3 571.4L1064.3 501.8A4 4 0 0 1 1068.3 497.8" fill="#E6C36A" ecmeta_series_index="1" ecmeta_data_index="21" ecmeta_ssr_type="chart" class="zr0-cls-2"></path>
<path d="M1110.3 919.7L1136.9 919.7L1110.3 919.7" fill="#E6C36A" ecmeta_series_index="1" ecmeta_data_index="22" ecmeta_ssr_type="chart" class="zr0-cls-2"></path>
<path d="M1160.2 707L1178.9 707A4 4 0 0 1 1182.9 711L1182.9 806.4L1156.2 806.4L1156.2 711A4 4 0 0 1 1160.2 707" fill="#E6C36A" ecmeta_series_index="1" ecmeta_data_index="23" ecmeta_ssr_type="chart" class="zr0-cls-2"></path>
<path d="M1206.1 657.3L1224.8 657.3A4 4 0 0 1 1228.8 661.3L1228.8 742.6L1202.1 742.6L1202.1 661.3A4 4 0 0 1 1206.1 657.3" fill="#E6C36A" ecmeta_series_index="1" ecmeta_data_index="24" ecmeta_ssr_type="chart" class="zr0-cls-2"></path>
<path d="M1252.1 903.4L1270.7 903.4A4 4 0 0 1 1274.7 907.4L1274.7 923.9L1248.1 923.9L1248.1 907.4A4 4 0 0 1 1252.1 903.4" fill="#E6C36A" ecmeta_series_index="1" ecmeta_data_index="25" ecmeta_ssr_type="chart" class="zr0-cls-2"></path>
<path d="M1298 779.7L1316.7 779.7A4 4 0 0 1 1320.7 783.7L1320.7 785.8L1294 785.8L1294 783.7A4 4 0 0 1 1298 779.7" fill="#E6C36A" ecmeta_series_index="1" ecmeta_data_index="26" ecmeta_ssr_type="chart" class="zr0-cls-2"></path>
<path d="M1344 626.5L1362.6 626.5A4 4 0 0 1 1366.6 630.5L1366.6 857.7L1340 857.7L1340 630.5A4 4 0 0 1 1344 626.5" fill="#E6C36A" ecmeta_series_index="1" ecmeta_data_index="27" ecmeta_ssr_type="chart" class="zr0-cls-2"></path>
<path d="M1389.9 715.9L1408.5 715.9A4 4 0 0 1 1412.5 719.9L1412.5 817.8L1385.9 817.8L1385.9 719.9A4 4 0 0 1 1389.9 715.9" fill="#E6C36A" ecmeta_series_index="1" ecmeta_data_index="28" ecmeta_ssr_type="chart" class="zr0-cls-2"></path>
<path d="M1435.8 741.4L1454.5 741.4A4 4 0 0 1 1458.5 745.4L1458.5 765.5L1431.8 765.5L1431.8 745.4A4 4 0 0 1 1435.8 741.4" fill="#E6C36A" ecmeta_series_index="1" ecmeta_data_index="29" ecmeta_ssr_type="chart" class="zr0-cls-2"></path>
<path d="M1481.8 729.9L1500.4 729.9A4 4 0 0 1 1504.4 733.9L1504.4 897.4L1477.8 897.4L1477.8 733.9A4 4 0 0 1 1481.8 729.9" fill="#E6C36A" ecmeta_series_index="1" ecmeta_data_index="30" ecmeta_ssr_type="chart" class="zr0-cls-2"></path>
<path d="M1527.7 794.5L1546.4 794.5A4 4 0 0 1 1550.4 798.5L1550.4 916.7L1523.7 916.7L1523.7 798.5A4 4 0 0 1 1527.7 794.5" fill="#E6C36A" ecmeta_series_index="1" ecmeta_data_index="31" ecmeta_ssr_type="chart" class="zr0-cls-2"></path>
<path d="M-5 -5l349 0l0 24l-349 0Z" transform="translate(1208.02 147)" fill="rgb(0,0,0)" fill-opacity="0" stroke="#b7b9be" stroke-width="0" class="zr0-cls-0"></path>
<path d="M2.5 0L15.5 0A2.5 2.5 0 0 1 18 2.5L18 7.5A2.5 2.5 0 0 1 15.5 10L2.5 10A2.5 2.5 0 0 1 0 7.5L0 2.5A2.5 2.5 0 0 1 2.5 0" transform="translate(1208.02 149)" fill="#D74C5B" ecmeta_series_index="0" ecmeta_data_index="0" ecmeta_ssr_type="legend" ecmeta_silent="true" class="zr0-cls-0"></path>
<text dominant-baseline="central" text-anchor="start" style="font-size:14px;font-family:sans-serif;" xml:space="preserve" x="23" y="5" transform="translate(1208.02 149)" fill="#D8E1ED">Open play xG</text>
<path d="M0 -2l109 0l0 14l-109 0Z" transform="translate(1208.02 149)" fill="none" pointer-events="visible" ecmeta_series_index="0" ecmeta_data_index="0" ecmeta_ssr_type="legend" class="zr0-cls-3"></path>
<path d="M2.5 0L15.5 0A2.5 2.5 0 0 1 18 2.5L18 7.5A2.5 2.5 0 0 1 15.5 10L2.5 10A2.5 2.5 0 0 1 0 7.5L0 2.5A2.5 2.5 0 0 1 2.5 0" transform="translate(1324.98 149)" fill="#E6C36A" ecmeta_series_index="1" ecmeta_data_index="1" ecmeta_ssr_type="legend" ecmeta_silent="true" class="zr0-cls-0"></path>
<text dominant-baseline="central" text-anchor="start" style="font-size:14px;font-family:sans-serif;" xml:space="preserve" x="23" y="5" transform="translate(1324.98 149)" fill="#D8E1ED">Non-open-play xG</text>
<path d="M0 -2l137 0l0 14l-137 0Z" transform="translate(1324.98 149)" fill="none" pointer-events="visible" ecmeta_series_index="1" ecmeta_data_index="1" ecmeta_ssr_type="legend" class="zr0-cls-3"></path>
<path d="M0 5L18 5" transform="translate(1470.94 149)" fill="#000" stroke="#F5F7FA" stroke-width="2" stroke-linecap="butt" stroke-miterlimit="10" class="zr0-cls-0"></path>
<path d="M13 5A4 4 0 1 1 13 4.6A4 4 0 0 1 13 5" transform="translate(1470.94 149)" fill="#F5F7FA" class="zr0-cls-0"></path>
<text dominant-baseline="central" text-anchor="start" style="font-size:14px;font-family:sans-serif;" xml:space="preserve" x="23" y="5" transform="translate(1470.94 149)" fill="#D8E1ED">Total xG</text>
<path d="M-1 -2l77.1 0l0 14l-77.1 0Z" transform="translate(1470.94 149)" fill="none" pointer-events="visible" ecmeta_series_index="2" ecmeta_data_index="2" ecmeta_ssr_type="legend" class="zr0-cls-3"></path>
<g clip-path="url(#zr0-c0)">
<path d="M113 791.8L158.9 764.1L204.8 337.7L250.8 763.1L296.7 798.3L342.7 473.1L388.6 692L434.5 592.9L480.5 692.5L526.4 871.1L572.3 889L618.3 638.4L664.2 677.4L710.2 619.1L756.1 316.5L802 476.8L848 805.4L893.9 868.1L939.8 835.1L985.8 691.5L1031.7 594.8L1077.7 497.8L1123.6 919.7L1169.5 707L1215.5 657.3L1261.4 903.4L1307.3 779.7L1353.3 626.5L1399.2 716.1L1445.2 741.4L1491.1 729.7L1537 794.5" fill="none" pointer-events="visible" stroke="#F5F7FA" stroke-width="2" stroke-linejoin="bevel" class="zr0-cls-5"></path>
</g>
<path d="M1 0A1 1 0 1 1 1 -0.1A1 1 0 0 1 1 0" transform="matrix(3,0,0,3,112.9688,791.78)" fill="#F5F7FA" ecmeta_series_index="2" ecmeta_data_index="0" ecmeta_ssr_type="chart" class="zr0-cls-6"></path>
<path d="M1 0A1 1 0 1 1 1 -0.1A1 1 0 0 1 1 0" transform="matrix(3,0,0,3,158.9063,764.088)" fill="#F5F7FA" ecmeta_series_index="2" ecmeta_data_index="1" ecmeta_ssr_type="chart" class="zr0-cls-6"></path>
<path d="M1 0A1 1 0 1 1 1 -0.1A1 1 0 0 1 1 0" transform="matrix(3,0,0,3,204.8438,337.7)" fill="#F5F7FA" ecmeta_series_index="2" ecmeta_data_index="2" ecmeta_ssr_type="chart" class="zr0-cls-6"></path>
<path d="M1 0A1 1 0 1 1 1 -0.1A1 1 0 0 1 1 0" transform="matrix(3,0,0,3,250.7813,763.056)" fill="#F5F7FA" ecmeta_series_index="2" ecmeta_data_index="3" ecmeta_ssr_type="chart" class="zr0-cls-6"></path>
<path d="M1 0A1 1 0 1 1 1 -0.1A1 1 0 0 1 1 0" transform="matrix(3,0,0,3,296.7188,798.316)" fill="#F5F7FA" ecmeta_series_index="2" ecmeta_data_index="4" ecmeta_ssr_type="chart" class="zr0-cls-6"></path>
<path d="M1 0A1 1 0 1 1 1 -0.1A1 1 0 0 1 1 0" transform="matrix(3,0,0,3,342.6563,473.064)" fill="#F5F7FA" ecmeta_series_index="2" ecmeta_data_index="5" ecmeta_ssr_type="chart" class="zr0-cls-6"></path>
<path d="M1 0A1 1 0 1 1 1 -0.1A1 1 0 0 1 1 0" transform="matrix(3,0,0,3,388.5938,692.02)" fill="#F5F7FA" ecmeta_series_index="2" ecmeta_data_index="6" ecmeta_ssr_type="chart" class="zr0-cls-6"></path>
<path d="M1 0A1 1 0 1 1 1 -0.1A1 1 0 0 1 1 0" transform="matrix(3,0,0,3,434.5313,592.948)" fill="#F5F7FA" ecmeta_series_index="2" ecmeta_data_index="7" ecmeta_ssr_type="chart" class="zr0-cls-6"></path>
<path d="M1 0A1 1 0 1 1 1 -0.1A1 1 0 0 1 1 0" transform="matrix(3,0,0,3,480.4688,692.536)" fill="#F5F7FA" ecmeta_series_index="2" ecmeta_data_index="8" ecmeta_ssr_type="chart" class="zr0-cls-6"></path>
<path d="M1 0A1 1 0 1 1 1 -0.1A1 1 0 0 1 1 0" transform="matrix(3,0,0,3,526.4063,871.072)" fill="#F5F7FA" ecmeta_series_index="2" ecmeta_data_index="9" ecmeta_ssr_type="chart" class="zr0-cls-6"></path>
<path d="M1 0A1 1 0 1 1 1 -0.1A1 1 0 0 1 1 0" transform="matrix(3,0,0,3,572.3438,888.96)" fill="#F5F7FA" ecmeta_series_index="2" ecmeta_data_index="10" ecmeta_ssr_type="chart" class="zr0-cls-6"></path>
<path d="M1 0A1 1 0 1 1 1 -0.1A1 1 0 0 1 1 0" transform="matrix(3,0,0,3,618.2813,638.356)" fill="#F5F7FA" ecmeta_series_index="2" ecmeta_data_index="11" ecmeta_ssr_type="chart" class="zr0-cls-6"></path>
<path d="M1 0A1 1 0 1 1 1 -0.1A1 1 0 0 1 1 0" transform="matrix(3,0,0,3,664.2188,677.4)" fill="#F5F7FA" ecmeta_series_index="2" ecmeta_data_index="12" ecmeta_ssr_type="chart" class="zr0-cls-6"></path>
<path d="M1 0A1 1 0 1 1 1 -0.1A1 1 0 0 1 1 0" transform="matrix(3,0,0,3,710.1563,619.092)" fill="#F5F7FA" ecmeta_series_index="2" ecmeta_data_index="13" ecmeta_ssr_type="chart" class="zr0-cls-6"></path>
<path d="M1 0A1 1 0 1 1 1 -0.1A1 1 0 0 1 1 0" transform="matrix(3,0,0,3,756.0938,316.544)" fill="#F5F7FA" ecmeta_series_index="2" ecmeta_data_index="14" ecmeta_ssr_type="chart" class="zr0-cls-6"></path>
<path d="M1 0A1 1 0 1 1 1 -0.1A1 1 0 0 1 1 0" transform="matrix(3,0,0,3,802.0313,476.848)" fill="#F5F7FA" ecmeta_series_index="2" ecmeta_data_index="15" ecmeta_ssr_type="chart" class="zr0-cls-6"></path>
<path d="M1 0A1 1 0 1 1 1 -0.1A1 1 0 0 1 1 0" transform="matrix(3,0,0,3,847.9688,805.368)" fill="#F5F7FA" ecmeta_series_index="2" ecmeta_data_index="16" ecmeta_ssr_type="chart" class="zr0-cls-6"></path>
<path d="M1 0A1 1 0 1 1 1 -0.1A1 1 0 0 1 1 0" transform="matrix(3,0,0,3,893.9063,868.148)" fill="#F5F7FA" ecmeta_series_index="2" ecmeta_data_index="17" ecmeta_ssr_type="chart" class="zr0-cls-6"></path>
<path d="M1 0A1 1 0 1 1 1 -0.1A1 1 0 0 1 1 0" transform="matrix(3,0,0,3,939.8438,835.124)" fill="#F5F7FA" ecmeta_series_index="2" ecmeta_data_index="18" ecmeta_ssr_type="chart" class="zr0-cls-6"></path>
<path d="M1 0A1 1 0 1 1 1 -0.1A1 1 0 0 1 1 0" transform="matrix(3,0,0,3,985.7813,691.504)" fill="#F5F7FA" ecmeta_series_index="2" ecmeta_data_index="19" ecmeta_ssr_type="chart" class="zr0-cls-6"></path>
<path d="M1 0A1 1 0 1 1 1 -0.1A1 1 0 0 1 1 0" transform="matrix(3,0,0,3,1031.7188,594.84)" fill="#F5F7FA" ecmeta_series_index="2" ecmeta_data_index="20" ecmeta_ssr_type="chart" class="zr0-cls-6"></path>
<path d="M1 0A1 1 0 1 1 1 -0.1A1 1 0 0 1 1 0" transform="matrix(3,0,0,3,1077.6563,497.832)" fill="#F5F7FA" ecmeta_series_index="2" ecmeta_data_index="21" ecmeta_ssr_type="chart" class="zr0-cls-6"></path>
<path d="M1 0A1 1 0 1 1 1 -0.1A1 1 0 0 1 1 0" transform="matrix(3,0,0,3,1123.5938,919.748)" fill="#F5F7FA" ecmeta_series_index="2" ecmeta_data_index="22" ecmeta_ssr_type="chart" class="zr0-cls-6"></path>
<path d="M1 0A1 1 0 1 1 1 -0.1A1 1 0 0 1 1 0" transform="matrix(3,0,0,3,1169.5313,706.984)" fill="#F5F7FA" ecmeta_series_index="2" ecmeta_data_index="23" ecmeta_ssr_type="chart" class="zr0-cls-6"></path>
<path d="M1 0A1 1 0 1 1 1 -0.1A1 1 0 0 1 1 0" transform="matrix(3,0,0,3,1215.4688,657.276)" fill="#F5F7FA" ecmeta_series_index="2" ecmeta_data_index="24" ecmeta_ssr_type="chart" class="zr0-cls-6"></path>
<path d="M1 0A1 1 0 1 1 1 -0.1A1 1 0 0 1 1 0" transform="matrix(3,0,0,3,1261.4063,903.408)" fill="#F5F7FA" ecmeta_series_index="2" ecmeta_data_index="25" ecmeta_ssr_type="chart" class="zr0-cls-6"></path>
<path d="M1 0A1 1 0 1 1 1 -0.1A1 1 0 0 1 1 0" transform="matrix(3,0,0,3,1307.3438,779.74)" fill="#F5F7FA" ecmeta_series_index="2" ecmeta_data_index="26" ecmeta_ssr_type="chart" class="zr0-cls-6"></path>
<path d="M1 0A1 1 0 1 1 1 -0.1A1 1 0 0 1 1 0" transform="matrix(3,0,0,3,1353.2813,626.488)" fill="#F5F7FA" ecmeta_series_index="2" ecmeta_data_index="27" ecmeta_ssr_type="chart" class="zr0-cls-6"></path>
<path d="M1 0A1 1 0 1 1 1 -0.1A1 1 0 0 1 1 0" transform="matrix(3,0,0,3,1399.2188,716.1)" fill="#F5F7FA" ecmeta_series_index="2" ecmeta_data_index="28" ecmeta_ssr_type="chart" class="zr0-cls-6"></path>
<path d="M1 0A1 1 0 1 1 1 -0.1A1 1 0 0 1 1 0" transform="matrix(3,0,0,3,1445.1563,741.384)" fill="#F5F7FA" ecmeta_series_index="2" ecmeta_data_index="29" ecmeta_ssr_type="chart" class="zr0-cls-6"></path>
<path d="M1 0A1 1 0 1 1 1 -0.1A1 1 0 0 1 1 0" transform="matrix(3,0,0,3,1491.0938,729.688)" fill="#F5F7FA" ecmeta_series_index="2" ecmeta_data_index="30" ecmeta_ssr_type="chart" class="zr0-cls-6"></path>
<path d="M1 0A1 1 0 1 1 1 -0.1A1 1 0 0 1 1 0" transform="matrix(3,0,0,3,1537.0313,794.532)" fill="#F5F7FA" ecmeta_series_index="2" ecmeta_data_index="31" ecmeta_ssr_type="chart" class="zr0-cls-6"></path>
<path d="M-0.54 -0.89A0.6 0.6 0 1 1 0.54 -0.89C0.39 -0.56 0 -0.42 0 0C0 -0.42 -0.39 -0.56 -0.54 -0.89Z" transform="matrix(21,0,0,21,1537.0313,794.532)" fill="#F5F7FA" ecmeta_series_index="2" ecmeta_data_index="0" ecmeta_ssr_type="chart" class="zr0-cls-6"></path>
<text dominant-baseline="central" text-anchor="middle" style="font-size:12px;font-family:sans-serif;font-weight:800;" transform="translate(1537.0313 772.572)" fill="#08111D">Leeds</text>
<path d="M-5 -5l439.9 0l0 40l-439.9 0Z" transform="translate(65 41)" fill="rgb(0,0,0)" fill-opacity="0" stroke="#3c3c41" stroke-width="0" class="zr0-cls-0"></path>
<path d="M-5 -5l692.3 0l0 25l-692.3 0Z" transform="translate(65 87)" fill="rgb(0,0,0)" fill-opacity="0" stroke="#3c3c41" stroke-width="0" class="zr0-cls-0"></path>
<path d="M-5 -5l234.1 0l0 28l-234.1 0Z" transform="translate(65 121)" fill="rgb(0,0,0)" fill-opacity="0" stroke="#3c3c41" stroke-width="0" class="zr0-cls-0"></path>
<path d="M-5 -5l278.2 0l0 28l-278.2 0Z" transform="translate(365 121)" fill="rgb(0,0,0)" fill-opacity="0" stroke="#3c3c41" stroke-width="0" class="zr0-cls-0"></path>
<path d="M-5 -5l447.9 0l0 26l-447.9 0Z" transform="translate(745 121)" fill="rgb(0,0,0)" fill-opacity="0" stroke="#3c3c41" stroke-width="0" class="zr0-cls-0"></path>
<text dominant-baseline="central" text-anchor="start" style="font-size:30px;font-family:Helvetica Neue;font-weight:800;" xml:space="preserve" y="15" transform="translate(65 41)" fill="#F8F4EC">Manchester United xG by Match</text>
<text dominant-baseline="central" text-anchor="start" style="font-size:15px;font-family:Helvetica Neue;font-weight:500;" xml:space="preserve" y="7.5" transform="translate(65 87)" fill="#9FB0C6">Open play vs non-open-play xG across 32 completed EPL matches | 2025/26 season to April 15, 2026</text>
<text dominant-baseline="central" text-anchor="start" style="font-size:18px;font-family:Helvetica Neue;font-weight:700;" xml:space="preserve" y="9" transform="translate(65 121)" fill="#D74C5B">Open play: 46.6 xG (74.9%)</text>
<text dominant-baseline="central" text-anchor="start" style="font-size:18px;font-family:Helvetica Neue;font-weight:700;" xml:space="preserve" y="9" transform="translate(365 121)" fill="#E6C36A">Other situations: 15.6 xG (25.1%)</text>
<text dominant-baseline="central" text-anchor="start" style="font-size:16px;font-family:Helvetica Neue;font-weight:600;" xml:space="preserve" y="8" transform="translate(745 121)" fill="#D8E1ED">Latest Leeds loss: 0.66 open-play xG, 0.71 non-open-play xG</text>
<defs >
<clipPath id="zr0-c0">
<path d="M89 169l1472 0l0 862l-1472 0Z" fill="#000" class="zr0-cls-4"></path>
</clipPath>
</defs>
<style ><![CDATA[
.zr0-cls-0:hover {
pointer-events:none;
}
.zr0-cls-1:hover {
cursor:pointer;
fill:rgba(236,83,100,1);
}
.zr0-cls-2:hover {
cursor:pointer;
fill:rgba(253,214,116,1);
}
.zr0-cls-3:hover {
cursor:pointer;
fill:rgba(0,0,0,0);
}
.zr0-cls-4:hover {
cursor:pointer;
fill:rgba(0,0,0,1);
}
.zr0-cls-5:hover {
cursor:pointer;
}
.zr0-cls-6:hover {
cursor:pointer;
fill:rgba(255,255,255,1);
}

]]>

</style>
</svg>