<svg xmlns="http://www.w3.org/2000/svg" width="1080" height="1350" viewBox="0 0 1080 1350" role="img" aria-label="Manchester United open-play xG by coach">
  <defs>
    <linearGradient id="paper" x1="0" y1="0" x2="1" y2="1">
      <stop offset="0%" stop-color="#F7F1E7" />
      <stop offset="100%" stop-color="#E8DFD1" />
    </linearGradient>
    <filter id="shadow" x="-20%" y="-20%" width="140%" height="140%">
      <feDropShadow dx="0" dy="18" stdDeviation="18" flood-color="#5B4234" flood-opacity="0.18" />
    </filter>
  </defs>
  <rect x="0" y="0" width="1080" height="1350" fill="url(#paper)" />
  <rect x="32" y="32" width="1016" height="1286" rx="28" fill="none" stroke="#CFC3B3" stroke-width="2" />

  <g transform="translate(70 72)">
    <rect x="0" y="0" width="190" height="38" rx="19" fill="#1A1D21" />
    <text x="95" y="25" text-anchor="middle" fill="#F8F1E6" font-family="Helvetica Neue, Arial, sans-serif" font-size="15" font-weight="800">TACTICAL TREND</text>
    <text x="0" y="102" fill="#111318" font-family="Helvetica Neue, Arial, sans-serif" font-size="64" font-weight="900"><tspan x="0" dy="0">Carrick&#x27;s open-play attack</tspan><tspan x="0" dy="68">is sliding</tspan></text>
    <text x="0" y="196" fill="#6B665F" font-family="Helvetica Neue, Arial, sans-serif" font-size="24">Manchester United | Amorim + Carrick league windows | 2025/26</text>
  </g>

  <g transform="translate(70 292)" filter="url(#shadow)">
    <rect x="0" y="0" width="940" height="122" rx="24" fill="#1A1D21" />
    <text x="28" y="45" fill="#F8F1E6" font-family="Helvetica Neue, Arial, sans-serif" font-size="24" font-weight="800">THE READ</text>
    <text x="220" y="48" fill="#F8F1E6" font-family="Helvetica Neue, Arial, sans-serif" font-size="25" font-weight="700"><tspan x="220" dy="0">United have 33 league matches. This chart</tspan><tspan x="220" dy="34">isolates the 32 Amorim/Carrick matches.</tspan></text>
  </g>

  <g>
    <rect x="70" y="440" width="940" height="520" rx="28" fill="#FFF8EC" stroke="#D7CFC1" stroke-width="2" />
    <text x="104" y="458" fill="#6B665F" font-family="Helvetica Neue, Arial, sans-serif" font-size="15" font-weight="800">OPEN-PLAY xG PER MATCH</text>
    <line x1="104" y1="915.0" x2="976" y2="915.0" stroke="#D7CFC1" stroke-width="1" /><text x="84" y="920.0" text-anchor="end" fill="#6B665F" font-family="Helvetica Neue, Arial, sans-serif" font-size="16">0</text><line x1="104" y1="777.5" x2="976" y2="777.5" stroke="#D7CFC1" stroke-width="1" /><text x="84" y="782.5" text-anchor="end" fill="#6B665F" font-family="Helvetica Neue, Arial, sans-serif" font-size="16">1</text><line x1="104" y1="640.0" x2="976" y2="640.0" stroke="#D7CFC1" stroke-width="1" /><text x="84" y="645.0" text-anchor="end" fill="#6B665F" font-family="Helvetica Neue, Arial, sans-serif" font-size="16">2</text><line x1="104" y1="502.5" x2="976" y2="502.5" stroke="#D7CFC1" stroke-width="1" /><text x="84" y="507.5" text-anchor="end" fill="#6B665F" font-family="Helvetica Neue, Arial, sans-serif" font-size="16">3</text>
    <rect x="104.0" y="475" width="534.5" height="440" fill="#C8102E" fill-opacity="0.055" />
        <text x="116.0" y="503" fill="#C8102E" font-family="Helvetica Neue, Arial, sans-serif" font-size="15" font-weight="800">AMORIM</text>
    <rect x="666.6" y="475" width="309.4" height="440" fill="#B9852B" fill-opacity="0.055" />
        <text x="678.6" y="503" fill="#B9852B" font-family="Helvetica Neue, Arial, sans-serif" font-size="15" font-weight="800">CARRICK</text>
    <path d="M 104.0 750.1 L 132.1 834.8 L 160.3 517.4 L 188.4 766.1 L 216.5 808.9 L 244.6 583.4 L 272.8 672.6 L 300.9 678.6 L 329.0 659.1 L 357.2 839.5 L 385.3 835.4 L 413.4 623.5 L 441.5 660.2 L 469.7 597.2 L 497.8 562.0 L 525.9 532.3 L 554.1 746.0 L 582.2 851.2 L 610.3 799.2 L 638.5 743.8" fill="none" stroke="#C8102E" stroke-width="4" stroke-linejoin="round" />
    <path d="M 666.6 548.4 L 694.7 826.9 L 722.8 736.2 L 751.0 685.2 L 779.1 830.2 L 807.2 719.8 L 835.4 777.2 L 863.5 745.3 L 891.6 703.5 L 919.7 809.0 L 947.9 824.4 L 976.0 855.0" fill="none" stroke="#B9852B" stroke-width="4" stroke-linejoin="round" />
    <path d="M 104.0 702.7 L 638.5 703.5" fill="none" stroke="#1A1D21" stroke-width="5" stroke-dasharray="13 10" opacity="0.72" />
    <path d="M 666.6 682.9 L 976.0 827.3" fill="none" stroke="#1A1D21" stroke-width="5" stroke-dasharray="13 10" opacity="0.72" />
    <circle cx="104.0" cy="750.1" r="6" fill="#C8102E" stroke="#F2EDE3" stroke-width="3" /><circle cx="132.1" cy="834.8" r="6" fill="#C8102E" stroke="#F2EDE3" stroke-width="3" /><circle cx="160.3" cy="517.4" r="6" fill="#C8102E" stroke="#F2EDE3" stroke-width="3" /><circle cx="188.4" cy="766.1" r="6" fill="#C8102E" stroke="#F2EDE3" stroke-width="3" /><circle cx="216.5" cy="808.9" r="6" fill="#C8102E" stroke="#F2EDE3" stroke-width="3" /><circle cx="244.6" cy="583.4" r="6" fill="#C8102E" stroke="#F2EDE3" stroke-width="3" /><circle cx="272.8" cy="672.6" r="6" fill="#C8102E" stroke="#F2EDE3" stroke-width="3" /><circle cx="300.9" cy="678.6" r="6" fill="#C8102E" stroke="#F2EDE3" stroke-width="3" /><circle cx="329.0" cy="659.1" r="6" fill="#C8102E" stroke="#F2EDE3" stroke-width="3" /><circle cx="357.2" cy="839.5" r="6" fill="#C8102E" stroke="#F2EDE3" stroke-width="3" /><circle cx="385.3" cy="835.4" r="6" fill="#C8102E" stroke="#F2EDE3" stroke-width="3" /><circle cx="413.4" cy="623.5" r="6" fill="#C8102E" stroke="#F2EDE3" stroke-width="3" /><circle cx="441.5" cy="660.2" r="6" fill="#C8102E" stroke="#F2EDE3" stroke-width="3" /><circle cx="469.7" cy="597.2" r="6" fill="#C8102E" stroke="#F2EDE3" stroke-width="3" /><circle cx="497.8" cy="562.0" r="6" fill="#C8102E" stroke="#F2EDE3" stroke-width="3" /><circle cx="525.9" cy="532.3" r="6" fill="#C8102E" stroke="#F2EDE3" stroke-width="3" /><circle cx="554.1" cy="746.0" r="6" fill="#C8102E" stroke="#F2EDE3" stroke-width="3" /><circle cx="582.2" cy="851.2" r="6" fill="#C8102E" stroke="#F2EDE3" stroke-width="3" /><circle cx="610.3" cy="799.2" r="6" fill="#C8102E" stroke="#F2EDE3" stroke-width="3" /><circle cx="638.5" cy="743.8" r="6" fill="#C8102E" stroke="#F2EDE3" stroke-width="3" />
    <circle cx="666.6" cy="548.4" r="6" fill="#B9852B" stroke="#F2EDE3" stroke-width="3" /><circle cx="694.7" cy="826.9" r="6" fill="#B9852B" stroke="#F2EDE3" stroke-width="3" /><circle cx="722.8" cy="736.2" r="6" fill="#B9852B" stroke="#F2EDE3" stroke-width="3" /><circle cx="751.0" cy="685.2" r="6" fill="#B9852B" stroke="#F2EDE3" stroke-width="3" /><circle cx="779.1" cy="830.2" r="6" fill="#B9852B" stroke="#F2EDE3" stroke-width="3" /><circle cx="807.2" cy="719.8" r="6" fill="#B9852B" stroke="#F2EDE3" stroke-width="3" /><circle cx="835.4" cy="777.2" r="6" fill="#B9852B" stroke="#F2EDE3" stroke-width="3" /><circle cx="863.5" cy="745.3" r="6" fill="#B9852B" stroke="#F2EDE3" stroke-width="3" /><circle cx="891.6" cy="703.5" r="6" fill="#B9852B" stroke="#F2EDE3" stroke-width="3" /><circle cx="919.7" cy="809.0" r="6" fill="#B9852B" stroke="#F2EDE3" stroke-width="3" /><circle cx="947.9" cy="824.4" r="6" fill="#B9852B" stroke="#F2EDE3" stroke-width="3" /><circle cx="976.0" cy="855.0" r="6" fill="#B9852B" stroke="#F2EDE3" stroke-width="3" />
    
    <line x1="104" y1="915" x2="976" y2="915" stroke="#1A1D21" stroke-width="2" />
    <text x="104" y="940" fill="#6B665F" font-family="Helvetica Neue, Arial, sans-serif" font-size="15">Match 1</text>
    <text x="976" y="940" text-anchor="end" fill="#6B665F" font-family="Helvetica Neue, Arial, sans-serif" font-size="15">Match 32</text>
  </g>

  <g transform="translate(70 1030)">
          <rect x="0" y="0" width="420" height="174" rx="22" fill="#FFF8EC" stroke="#D7CFC1" stroke-width="2" />
          <rect x="0" y="0" width="420" height="8" rx="8" fill="#C8102E" />
          <text x="28" y="50" fill="#111318" font-family="Helvetica Neue, Arial, sans-serif" font-size="29" font-weight="800">Amorim</text>
          <text x="28" y="84" fill="#6B665F" font-family="Helvetica Neue, Arial, sans-serif" font-size="17">20 league matches</text>
          <text x="28" y="126" fill="#C8102E" font-family="Helvetica Neue, Arial, sans-serif" font-size="36" font-weight="800">1.54</text>
          <text x="176" y="126" fill="#1A1D21" font-family="Helvetica Neue, Arial, sans-serif" font-size="24" font-weight="800">-0.000/match</text>
          <text x="28" y="154" fill="#6B665F" font-family="Helvetica Neue, Arial, sans-serif" font-size="15">Higher, stable level</text>
        </g>
  <g transform="translate(590 1030)">
          <rect x="0" y="0" width="420" height="174" rx="22" fill="#FFF8EC" stroke="#D7CFC1" stroke-width="2" />
          <rect x="0" y="0" width="420" height="8" rx="8" fill="#B9852B" />
          <text x="28" y="50" fill="#111318" font-family="Helvetica Neue, Arial, sans-serif" font-size="29" font-weight="800">Carrick</text>
          <text x="28" y="84" fill="#6B665F" font-family="Helvetica Neue, Arial, sans-serif" font-size="17">12 league matches</text>
          <text x="28" y="126" fill="#B9852B" font-family="Helvetica Neue, Arial, sans-serif" font-size="36" font-weight="800">1.16</text>
          <text x="176" y="126" fill="#1A1D21" font-family="Helvetica Neue, Arial, sans-serif" font-size="24" font-weight="800">-0.095/match</text>
          <text x="28" y="154" fill="#6B665F" font-family="Helvetica Neue, Arial, sans-serif" font-size="15">Lower, downward trend</text>
        </g>

  <g transform="translate(70 1212)">
    <rect x="0" y="0" width="940" height="54" rx="18" fill="#1A1D21" />
    <text x="22" y="35" fill="#F8F1E6" font-family="Helvetica Neue, Arial, sans-serif" font-size="18" font-weight="900">Latest in chart: Chelsea A (1-0)</text>
    <text x="380" y="35" fill="#F8F1E6" font-family="Helvetica Neue, Arial, sans-serif" font-size="18" font-weight="700">0.44 open-play xG</text>
    <text x="690" y="35" fill="#CFC3B3" font-family="Helvetica Neue, Arial, sans-serif" font-size="16" font-weight="700">Carrick avg: 1.16</text>
  </g>

  <g transform="translate(70 1284)">
    <line x1="0" y1="0" x2="940" y2="0" stroke="#CFC3B3" stroke-width="2" />
    <text x="0" y="38" fill="#6B665F" font-family="Helvetica Neue, Arial, sans-serif" font-size="17">Data source: Understat | Open-play xG only | Excludes 1 transition match | Updated April 26, 2026</text>
  </g>
</svg>