<svg xmlns="http://www.w3.org/2000/svg" width="1080" height="1350" viewBox="0 0 1080 1350" role="img" aria-label="Manchester United vs Arsenal: recent form">
  <defs>
    <linearGradient id="bg" x1="0" y1="0" x2="1" y2="1">
      <stop offset="0%" stop-color="#050B14" />
      <stop offset="55%" stop-color="#0A1220" />
      <stop offset="100%" stop-color="#101C2E" />
    </linearGradient>
    <radialGradient id="glowLeft" cx="0.18" cy="0.12" r="0.54">
      <stop offset="0%" stop-color="#C8102E" stop-opacity="0.22" />
      <stop offset="100%" stop-color="#C8102E" stop-opacity="0" />
    </radialGradient>
    <radialGradient id="glowRight" cx="0.84" cy="0.1" r="0.52">
      <stop offset="0%" stop-color="#EF4444" stop-opacity="0.18" />
      <stop offset="100%" stop-color="#EF4444" stop-opacity="0" />
    </radialGradient>
  </defs>

  <rect x="0" y="0" width="1080" height="1350" fill="url(#bg)" />
  <rect x="0" y="0" width="1080" height="1350" fill="url(#glowLeft)" />
  <rect x="0" y="0" width="1080" height="1350" fill="url(#glowRight)" />
  <rect x="28" y="28" width="1024" height="1294" rx="38" fill="none" stroke="#1D2939" stroke-width="2" />

  <g transform="translate(78 78)">
    <rect x="0" y="0" width="164" height="40" rx="20" fill="#132032" />
    <text x="82" y="26" text-anchor="middle" fill="#E6D5B7" font-family="Helvetica Neue, Arial, sans-serif" font-size="16" font-weight="700" letter-spacing="1.4">FORM CHECK</text>
    <text x="0" y="108" fill="#F6F1E8" font-family="Helvetica Neue, Arial, sans-serif" font-size="62" font-weight="800"><tspan x="0" dy="0">Arsenal have the stronger</tspan><tspan x="0" dy="64">recent league form</tspan></text>
    <text x="0" y="220" fill="#9FA8BC" font-family="Helvetica Neue, Arial, sans-serif" font-size="26">Last 5 league matches | points, W-D-L, goals, xG, xGA</text>
  </g>

  <g transform="translate(78 260)">
          <rect x="0" y="0" width="462" height="700" rx="34" fill="#121D2D" stroke="#223146" stroke-width="2" />
          <rect x="0" y="0" width="462" height="10" rx="10" fill="#C8102E" />
          <circle cx="52" cy="58" r="14" fill="#C8102E" />
          <text x="78" y="66" fill="#F6F1E8" font-family="Helvetica Neue, Arial, sans-serif" font-size="34" font-weight="700">Manchester United</text>
          <text x="40" y="112" fill="#9FA8BC" font-family="Helvetica Neue, Arial, sans-serif" font-size="18" letter-spacing="2.2">LAST 5 LEAGUE MATCHES</text>

          <text x="40" y="194" fill="#667085" font-family="Georgia, Times New Roman, serif" font-size="24" font-style="italic">Points</text>
          <text x="40" y="282" fill="#C8102E" font-family="Helvetica Neue, Arial, sans-serif" font-size="110" font-weight="800">10</text>
          <rect x="196" y="172" width="180" height="44" rx="22" fill="#F59E0B" fill-opacity="0.22" />
          <text x="286" y="200" text-anchor="middle" fill="#F6F1E8" font-family="Helvetica Neue, Arial, sans-serif" font-size="20" font-weight="700">W-D-L 3-1-1</text>

          <text x="40" y="334" fill="#9FA8BC" font-family="Helvetica Neue, Arial, sans-serif" font-size="18" letter-spacing="1.8">FORM STRIP</text>
          <g transform="translate(40 356)">
            <g transform="translate(0 0)">
                  <rect x="0" y="0" width="58" height="36" rx="18" fill="#C8102E" fill-opacity="0.96" />
                  <text x="29" y="24" text-anchor="middle" fill="#F8FAFC" font-family="Helvetica Neue, Arial, sans-serif" font-size="18" font-weight="700">W</text>
                </g><g transform="translate(70 0)">
                  <rect x="0" y="0" width="58" height="36" rx="18" fill="#C8102E" fill-opacity="0.96" />
                  <text x="29" y="24" text-anchor="middle" fill="#F8FAFC" font-family="Helvetica Neue, Arial, sans-serif" font-size="18" font-weight="700">W</text>
                </g><g transform="translate(140 0)">
                  <rect x="0" y="0" width="58" height="36" rx="18" fill="#475467" fill-opacity="0.96" />
                  <text x="29" y="24" text-anchor="middle" fill="#F8FAFC" font-family="Helvetica Neue, Arial, sans-serif" font-size="18" font-weight="700">L</text>
                </g><g transform="translate(210 0)">
                  <rect x="0" y="0" width="58" height="36" rx="18" fill="#C8102E" fill-opacity="0.96" />
                  <text x="29" y="24" text-anchor="middle" fill="#F8FAFC" font-family="Helvetica Neue, Arial, sans-serif" font-size="18" font-weight="700">W</text>
                </g><g transform="translate(280 0)">
                  <rect x="0" y="0" width="58" height="36" rx="18" fill="#A78BFA" fill-opacity="0.96" />
                  <text x="29" y="24" text-anchor="middle" fill="#F8FAFC" font-family="Helvetica Neue, Arial, sans-serif" font-size="18" font-weight="700">D</text>
                </g>
          </g>

          <g transform="translate(40 464)">
            <g transform="translate(0 0)">
      <text x="0" y="0" fill="#9FA8BC" font-family="Helvetica Neue, Arial, sans-serif" font-size="18" letter-spacing="0.2">Goals Scored</text>
      <text x="352" y="0" text-anchor="end" fill="#F6F1E8" font-family="Helvetica Neue, Arial, sans-serif" font-size="22" font-weight="700">9</text>
      <rect x="0" y="18" width="314" height="12" rx="6" fill="#1E293B" />
      <rect x="0" y="18" width="256" height="12" rx="6" fill="#C8102E" />
    </g><g transform="translate(0 94)">
      <text x="0" y="0" fill="#9FA8BC" font-family="Helvetica Neue, Arial, sans-serif" font-size="18" letter-spacing="0.2">Goals Conceded</text>
      <text x="352" y="0" text-anchor="end" fill="#F6F1E8" font-family="Helvetica Neue, Arial, sans-serif" font-size="22" font-weight="700">6</text>
      <rect x="0" y="18" width="314" height="12" rx="6" fill="#1E293B" />
      <rect x="0" y="18" width="314" height="12" rx="6" fill="#C8102E" />
    </g><g transform="translate(0 188)">
      <text x="0" y="0" fill="#9FA8BC" font-family="Helvetica Neue, Arial, sans-serif" font-size="18" letter-spacing="0.2">Expected Goals</text>
      <text x="352" y="0" text-anchor="end" fill="#F6F1E8" font-family="Helvetica Neue, Arial, sans-serif" font-size="22" font-weight="700">9.03</text>
      <rect x="0" y="18" width="314" height="12" rx="6" fill="#1E293B" />
      <rect x="0" y="18" width="299" height="12" rx="6" fill="#C8102E" />
    </g><g transform="translate(0 282)">
      <text x="0" y="0" fill="#9FA8BC" font-family="Helvetica Neue, Arial, sans-serif" font-size="18" letter-spacing="0.2">Expected Goals Against</text>
      <text x="352" y="0" text-anchor="end" fill="#F6F1E8" font-family="Helvetica Neue, Arial, sans-serif" font-size="22" font-weight="700">5.89</text>
      <rect x="0" y="18" width="314" height="12" rx="6" fill="#1E293B" />
      <rect x="0" y="18" width="314" height="12" rx="6" fill="#C8102E" />
    </g>
          </g>

          <line x1="40" y1="642" x2="422" y2="642" stroke="#223146" stroke-width="1" />
          <text x="40" y="678" fill="#9FA8BC" font-family="Helvetica Neue, Arial, sans-serif" font-size="18" font-weight="600">MUN</text>
          <text x="422" y="678" text-anchor="end" fill="#667085" font-family="Helvetica Neue, Arial, sans-serif" font-size="16">3-1-1 | 10 pts</text>
        </g>
  <g transform="translate(540 260)">
          <rect x="0" y="0" width="462" height="700" rx="34" fill="#121D2D" stroke="#223146" stroke-width="2" />
          <rect x="0" y="0" width="462" height="10" rx="10" fill="#EF4444" />
          <circle cx="52" cy="58" r="14" fill="#EF4444" />
          <text x="78" y="66" fill="#F6F1E8" font-family="Helvetica Neue, Arial, sans-serif" font-size="34" font-weight="700">Arsenal</text>
          <text x="40" y="112" fill="#9FA8BC" font-family="Helvetica Neue, Arial, sans-serif" font-size="18" letter-spacing="2.2">LAST 5 LEAGUE MATCHES</text>

          <text x="40" y="194" fill="#667085" font-family="Georgia, Times New Roman, serif" font-size="24" font-style="italic">Points</text>
          <text x="40" y="282" fill="#EF4444" font-family="Helvetica Neue, Arial, sans-serif" font-size="110" font-weight="800">13</text>
          <rect x="196" y="172" width="180" height="44" rx="22" fill="#3B82F6" fill-opacity="0.22" />
          <text x="286" y="200" text-anchor="middle" fill="#F6F1E8" font-family="Helvetica Neue, Arial, sans-serif" font-size="20" font-weight="700">W-D-L 4-1-0</text>

          <text x="40" y="334" fill="#9FA8BC" font-family="Helvetica Neue, Arial, sans-serif" font-size="18" letter-spacing="1.8">FORM STRIP</text>
          <g transform="translate(40 356)">
            <g transform="translate(0 0)">
                  <rect x="0" y="0" width="58" height="36" rx="18" fill="#A78BFA" fill-opacity="0.96" />
                  <text x="29" y="24" text-anchor="middle" fill="#F8FAFC" font-family="Helvetica Neue, Arial, sans-serif" font-size="18" font-weight="700">D</text>
                </g><g transform="translate(70 0)">
                  <rect x="0" y="0" width="58" height="36" rx="18" fill="#EF4444" fill-opacity="0.96" />
                  <text x="29" y="24" text-anchor="middle" fill="#F8FAFC" font-family="Helvetica Neue, Arial, sans-serif" font-size="18" font-weight="700">W</text>
                </g><g transform="translate(140 0)">
                  <rect x="0" y="0" width="58" height="36" rx="18" fill="#EF4444" fill-opacity="0.96" />
                  <text x="29" y="24" text-anchor="middle" fill="#F8FAFC" font-family="Helvetica Neue, Arial, sans-serif" font-size="18" font-weight="700">W</text>
                </g><g transform="translate(210 0)">
                  <rect x="0" y="0" width="58" height="36" rx="18" fill="#EF4444" fill-opacity="0.96" />
                  <text x="29" y="24" text-anchor="middle" fill="#F8FAFC" font-family="Helvetica Neue, Arial, sans-serif" font-size="18" font-weight="700">W</text>
                </g><g transform="translate(280 0)">
                  <rect x="0" y="0" width="58" height="36" rx="18" fill="#EF4444" fill-opacity="0.96" />
                  <text x="29" y="24" text-anchor="middle" fill="#F8FAFC" font-family="Helvetica Neue, Arial, sans-serif" font-size="18" font-weight="700">W</text>
                </g>
          </g>

          <g transform="translate(40 464)">
            <g transform="translate(0 0)">
      <text x="0" y="0" fill="#9FA8BC" font-family="Helvetica Neue, Arial, sans-serif" font-size="18" letter-spacing="0.2">Goals Scored</text>
      <text x="352" y="0" text-anchor="end" fill="#F6F1E8" font-family="Helvetica Neue, Arial, sans-serif" font-size="22" font-weight="700">11</text>
      <rect x="0" y="18" width="314" height="12" rx="6" fill="#1E293B" />
      <rect x="0" y="18" width="314" height="12" rx="6" fill="#EF4444" />
    </g><g transform="translate(0 94)">
      <text x="0" y="0" fill="#9FA8BC" font-family="Helvetica Neue, Arial, sans-serif" font-size="18" letter-spacing="0.2">Goals Conceded</text>
      <text x="352" y="0" text-anchor="end" fill="#F6F1E8" font-family="Helvetica Neue, Arial, sans-serif" font-size="22" font-weight="700">4</text>
      <rect x="0" y="18" width="314" height="12" rx="6" fill="#1E293B" />
      <rect x="0" y="18" width="209" height="12" rx="6" fill="#EF4444" />
    </g><g transform="translate(0 188)">
      <text x="0" y="0" fill="#9FA8BC" font-family="Helvetica Neue, Arial, sans-serif" font-size="18" letter-spacing="0.2">Expected Goals</text>
      <text x="352" y="0" text-anchor="end" fill="#F6F1E8" font-family="Helvetica Neue, Arial, sans-serif" font-size="22" font-weight="700">9.47</text>
      <rect x="0" y="18" width="314" height="12" rx="6" fill="#1E293B" />
      <rect x="0" y="18" width="314" height="12" rx="6" fill="#EF4444" />
    </g><g transform="translate(0 282)">
      <text x="0" y="0" fill="#9FA8BC" font-family="Helvetica Neue, Arial, sans-serif" font-size="18" letter-spacing="0.2">Expected Goals Against</text>
      <text x="352" y="0" text-anchor="end" fill="#F6F1E8" font-family="Helvetica Neue, Arial, sans-serif" font-size="22" font-weight="700">4.01</text>
      <rect x="0" y="18" width="314" height="12" rx="6" fill="#1E293B" />
      <rect x="0" y="18" width="213" height="12" rx="6" fill="#EF4444" />
    </g>
          </g>

          <line x1="40" y1="642" x2="422" y2="642" stroke="#223146" stroke-width="1" />
          <text x="40" y="678" fill="#9FA8BC" font-family="Helvetica Neue, Arial, sans-serif" font-size="18" font-weight="600">ARS</text>
          <text x="422" y="678" text-anchor="end" fill="#667085" font-family="Helvetica Neue, Arial, sans-serif" font-size="16">4-1-0 | 13 pts</text>
        </g>

  <g transform="translate(78 986)">
    <rect x="0" y="0" width="924" height="276" rx="30" fill="#0D1522" stroke="#1E2A3B" stroke-width="2" />
    <text x="42" y="58" fill="#F6F1E8" font-family="Helvetica Neue, Arial, sans-serif" font-size="24" font-weight="700" letter-spacing="1.3">WHY THE EDGE LOOKS THIS WAY</text>
    <g transform="translate(48 88)">
              <circle cx="9" cy="12" r="4.5" fill="#C8A96A" />
              <text x="28" y="18" fill="#F6F1E8" font-family="Helvetica Neue, Arial, sans-serif" font-size="26" font-weight="400"><tspan x="28" dy="0">Manchester United carry a non-penalty xG difference of</tspan><tspan x="28" dy="28">17.38, compared with Arsenal at 33.42.</tspan></text>
            </g><g transform="translate(48 160)">
              <circle cx="9" cy="12" r="4.5" fill="#C8A96A" />
              <text x="28" y="18" fill="#F6F1E8" font-family="Helvetica Neue, Arial, sans-serif" font-size="26" font-weight="400"><tspan x="28" dy="0">Recent five-match output: Manchester United have 10</tspan><tspan x="28" dy="28">points and 9-6 goals; Arsenal have 13 points and 11-4.</tspan></text>
            </g><g transform="translate(48 232)">
              <circle cx="9" cy="12" r="4.5" fill="#C8A96A" />
              <text x="28" y="18" fill="#F6F1E8" font-family="Helvetica Neue, Arial, sans-serif" font-size="26" font-weight="400"><tspan x="28" dy="0">W-D-L form over the same stretch: Manchester United</tspan><tspan x="28" dy="28">3-1-1, Arsenal 4-1-0.</tspan></text>
            </g>
  </g>

  <text x="78" y="1302" fill="#667085" font-family="Helvetica Neue, Arial, sans-serif" font-size="18">Data source: Understat | Window: latest 5 league matches</text>
</svg>
