<svg xmlns="http://www.w3.org/2000/svg" width="1080" height="1350" viewBox="0 0 1080 1350" role="img" aria-label="Manchester United full open-play xG trend">
  <defs>
    <linearGradient id="paper" x1="0" y1="0" x2="1" y2="1">
      <stop offset="0%" stop-color="#F7F1E7" />
      <stop offset="100%" stop-color="#E8DFD1" />
    </linearGradient>
    <filter id="shadow" x="-20%" y="-20%" width="140%" height="140%">
      <feDropShadow dx="0" dy="18" stdDeviation="18" flood-color="#5B4234" flood-opacity="0.18" />
    </filter>
  </defs>
  <rect x="0" y="0" width="1080" height="1350" fill="url(#paper)" />
  <rect x="32" y="32" width="1016" height="1286" rx="28" fill="none" stroke="#CFC3B3" stroke-width="2" />

  <g transform="translate(70 72)">
    <rect x="0" y="0" width="190" height="38" rx="19" fill="#1A1D21" />
    <text x="95" y="25" text-anchor="middle" fill="#F8F1E6" font-family="Helvetica Neue, Arial, sans-serif" font-size="15" font-weight="800">TACTICAL TREND</text>
    <text x="0" y="102" fill="#111318" font-family="Helvetica Neue, Arial, sans-serif" font-size="64" font-weight="900"><tspan x="0" dy="0">United&#x27;s open-play attack</tspan><tspan x="0" dy="68">is sliding</tspan></text>
    <text x="0" y="196" fill="#6B665F" font-family="Helvetica Neue, Arial, sans-serif" font-size="24">Manchester United | all 33 completed EPL matches | 2025/26</text>
  </g>

  <g transform="translate(70 292)" filter="url(#shadow)">
    <rect x="0" y="0" width="940" height="122" rx="24" fill="#1A1D21" />
    <text x="28" y="45" fill="#F8F1E6" font-family="Helvetica Neue, Arial, sans-serif" font-size="24" font-weight="800">THE READ</text>
    <text x="220" y="48" fill="#F8F1E6" font-family="Helvetica Neue, Arial, sans-serif" font-size="25" font-weight="700"><tspan x="220" dy="0">Full 33-match view: Amorim stayed higher.</tspan><tspan x="220" dy="34">Post-Amorim is lower and trending down.</tspan></text>
  </g>

  <g>
    <rect x="70" y="440" width="940" height="520" rx="28" fill="#FFF8EC" stroke="#D7CFC1" stroke-width="2" />
    <text x="104" y="458" fill="#6B665F" font-family="Helvetica Neue, Arial, sans-serif" font-size="15" font-weight="800">OPEN-PLAY xG PER MATCH</text>
    <line x1="104" y1="915.0" x2="976" y2="915.0" stroke="#D7CFC1" stroke-width="1" /><text x="84" y="920.0" text-anchor="end" fill="#6B665F" font-family="Helvetica Neue, Arial, sans-serif" font-size="16">0</text><line x1="104" y1="777.5" x2="976" y2="777.5" stroke="#D7CFC1" stroke-width="1" /><text x="84" y="782.5" text-anchor="end" fill="#6B665F" font-family="Helvetica Neue, Arial, sans-serif" font-size="16">1</text><line x1="104" y1="640.0" x2="976" y2="640.0" stroke="#D7CFC1" stroke-width="1" /><text x="84" y="645.0" text-anchor="end" fill="#6B665F" font-family="Helvetica Neue, Arial, sans-serif" font-size="16">2</text><line x1="104" y1="502.5" x2="976" y2="502.5" stroke="#D7CFC1" stroke-width="1" /><text x="84" y="507.5" text-anchor="end" fill="#6B665F" font-family="Helvetica Neue, Arial, sans-serif" font-size="16">3</text>
    <rect x="104.0" y="475" width="517.8" height="440" fill="#C8102E" fill-opacity="0.055" />
        <text x="116.0" y="503" fill="#C8102E" font-family="Helvetica Neue, Arial, sans-serif" font-size="15" font-weight="800">AMORIM</text>
    <rect x="649.0" y="475" width="327.0" height="440" fill="#B9852B" fill-opacity="0.055" />
        <text x="661.0" y="503" fill="#B9852B" font-family="Helvetica Neue, Arial, sans-serif" font-size="15" font-weight="800">POST-AMORIM</text>
    <path d="M 104.0 750.1 L 131.2 834.8 L 158.5 517.4 L 185.8 766.1 L 213.0 808.9 L 240.2 583.4 L 267.5 672.6 L 294.8 678.6 L 322.0 659.1 L 349.2 839.5 L 376.5 835.4 L 403.8 623.5 L 431.0 660.2 L 458.2 597.2 L 485.5 562.0 L 512.8 532.3 L 540.0 746.0 L 567.2 851.2 L 594.5 799.2 L 621.8 743.8" fill="none" stroke="#C8102E" stroke-width="4" stroke-linejoin="round" />
    <path d="M 649.0 605.6 L 676.2 548.4 L 703.5 826.9 L 730.8 736.2 L 758.0 685.2 L 785.2 830.2 L 812.5 719.8 L 839.8 777.2 L 867.0 745.3 L 894.2 703.5 L 921.5 809.0 L 948.8 824.4 L 976.0 855.0" fill="none" stroke="#B9852B" stroke-width="4" stroke-linejoin="round" />
    <path d="M 104.0 702.7 L 621.8 703.5" fill="none" stroke="#1A1D21" stroke-width="5" stroke-dasharray="13 10" opacity="0.72" />
    <path d="M 649.0 652.1 L 976.0 835.1" fill="none" stroke="#1A1D21" stroke-width="5" stroke-dasharray="13 10" opacity="0.72" />
    <circle cx="104.0" cy="750.1" r="6" fill="#C8102E" stroke="#F2EDE3" stroke-width="3" /><circle cx="131.2" cy="834.8" r="6" fill="#C8102E" stroke="#F2EDE3" stroke-width="3" /><circle cx="158.5" cy="517.4" r="6" fill="#C8102E" stroke="#F2EDE3" stroke-width="3" /><circle cx="185.8" cy="766.1" r="6" fill="#C8102E" stroke="#F2EDE3" stroke-width="3" /><circle cx="213.0" cy="808.9" r="6" fill="#C8102E" stroke="#F2EDE3" stroke-width="3" /><circle cx="240.2" cy="583.4" r="6" fill="#C8102E" stroke="#F2EDE3" stroke-width="3" /><circle cx="267.5" cy="672.6" r="6" fill="#C8102E" stroke="#F2EDE3" stroke-width="3" /><circle cx="294.8" cy="678.6" r="6" fill="#C8102E" stroke="#F2EDE3" stroke-width="3" /><circle cx="322.0" cy="659.1" r="6" fill="#C8102E" stroke="#F2EDE3" stroke-width="3" /><circle cx="349.2" cy="839.5" r="6" fill="#C8102E" stroke="#F2EDE3" stroke-width="3" /><circle cx="376.5" cy="835.4" r="6" fill="#C8102E" stroke="#F2EDE3" stroke-width="3" /><circle cx="403.8" cy="623.5" r="6" fill="#C8102E" stroke="#F2EDE3" stroke-width="3" /><circle cx="431.0" cy="660.2" r="6" fill="#C8102E" stroke="#F2EDE3" stroke-width="3" /><circle cx="458.2" cy="597.2" r="6" fill="#C8102E" stroke="#F2EDE3" stroke-width="3" /><circle cx="485.5" cy="562.0" r="6" fill="#C8102E" stroke="#F2EDE3" stroke-width="3" /><circle cx="512.8" cy="532.3" r="6" fill="#C8102E" stroke="#F2EDE3" stroke-width="3" /><circle cx="540.0" cy="746.0" r="6" fill="#C8102E" stroke="#F2EDE3" stroke-width="3" /><circle cx="567.2" cy="851.2" r="6" fill="#C8102E" stroke="#F2EDE3" stroke-width="3" /><circle cx="594.5" cy="799.2" r="6" fill="#C8102E" stroke="#F2EDE3" stroke-width="3" /><circle cx="621.8" cy="743.8" r="6" fill="#C8102E" stroke="#F2EDE3" stroke-width="3" />
    <circle cx="649.0" cy="605.6" r="6" fill="#B9852B" stroke="#F2EDE3" stroke-width="3" /><circle cx="676.2" cy="548.4" r="6" fill="#B9852B" stroke="#F2EDE3" stroke-width="3" /><circle cx="703.5" cy="826.9" r="6" fill="#B9852B" stroke="#F2EDE3" stroke-width="3" /><circle cx="730.8" cy="736.2" r="6" fill="#B9852B" stroke="#F2EDE3" stroke-width="3" /><circle cx="758.0" cy="685.2" r="6" fill="#B9852B" stroke="#F2EDE3" stroke-width="3" /><circle cx="785.2" cy="830.2" r="6" fill="#B9852B" stroke="#F2EDE3" stroke-width="3" /><circle cx="812.5" cy="719.8" r="6" fill="#B9852B" stroke="#F2EDE3" stroke-width="3" /><circle cx="839.8" cy="777.2" r="6" fill="#B9852B" stroke="#F2EDE3" stroke-width="3" /><circle cx="867.0" cy="745.3" r="6" fill="#B9852B" stroke="#F2EDE3" stroke-width="3" /><circle cx="894.2" cy="703.5" r="6" fill="#B9852B" stroke="#F2EDE3" stroke-width="3" /><circle cx="921.5" cy="809.0" r="6" fill="#B9852B" stroke="#F2EDE3" stroke-width="3" /><circle cx="948.8" cy="824.4" r="6" fill="#B9852B" stroke="#F2EDE3" stroke-width="3" /><circle cx="976.0" cy="855.0" r="6" fill="#B9852B" stroke="#F2EDE3" stroke-width="3" />
    
    <line x1="104" y1="915" x2="976" y2="915" stroke="#1A1D21" stroke-width="2" />
    <text x="104" y="940" fill="#6B665F" font-family="Helvetica Neue, Arial, sans-serif" font-size="15">Match 1</text>
    <text x="976" y="940" text-anchor="end" fill="#6B665F" font-family="Helvetica Neue, Arial, sans-serif" font-size="15">Match 33</text>
  </g>

  <g transform="translate(70 1030)">
          <rect x="0" y="0" width="420" height="174" rx="22" fill="#FFF8EC" stroke="#D7CFC1" stroke-width="2" />
          <rect x="0" y="0" width="420" height="8" rx="8" fill="#C8102E" />
          <text x="28" y="50" fill="#111318" font-family="Helvetica Neue, Arial, sans-serif" font-size="29" font-weight="800">Amorim</text>
          <text x="28" y="84" fill="#6B665F" font-family="Helvetica Neue, Arial, sans-serif" font-size="17">20 league matches</text>
          <text x="28" y="126" fill="#C8102E" font-family="Helvetica Neue, Arial, sans-serif" font-size="36" font-weight="800">1.54</text>
          <text x="176" y="126" fill="#1A1D21" font-family="Helvetica Neue, Arial, sans-serif" font-size="24" font-weight="800">-0.000/match</text>
          <text x="28" y="154" fill="#6B665F" font-family="Helvetica Neue, Arial, sans-serif" font-size="15">Amorim league window</text>
        </g>
  <g transform="translate(590 1030)">
          <rect x="0" y="0" width="420" height="174" rx="22" fill="#FFF8EC" stroke="#D7CFC1" stroke-width="2" />
          <rect x="0" y="0" width="420" height="8" rx="8" fill="#B9852B" />
          <text x="28" y="50" fill="#111318" font-family="Helvetica Neue, Arial, sans-serif" font-size="29" font-weight="800">Post-Amorim</text>
          <text x="28" y="84" fill="#6B665F" font-family="Helvetica Neue, Arial, sans-serif" font-size="17">13 league matches</text>
          <text x="28" y="126" fill="#B9852B" font-family="Helvetica Neue, Arial, sans-serif" font-size="36" font-weight="800">1.25</text>
          <text x="176" y="126" fill="#1A1D21" font-family="Helvetica Neue, Arial, sans-serif" font-size="24" font-weight="800">-0.111/match</text>
          <text x="28" y="154" fill="#6B665F" font-family="Helvetica Neue, Arial, sans-serif" font-size="15">1 transition + 12 Carrick</text>
        </g>

  <g transform="translate(70 1212)">
    <rect x="0" y="0" width="940" height="54" rx="18" fill="#1A1D21" />
    <text x="22" y="35" fill="#F8F1E6" font-family="Helvetica Neue, Arial, sans-serif" font-size="18" font-weight="900">Latest: Chelsea A (1-0)</text>
    <text x="380" y="35" fill="#F8F1E6" font-family="Helvetica Neue, Arial, sans-serif" font-size="18" font-weight="700">0.44 open-play xG</text>
    <text x="690" y="35" fill="#CFC3B3" font-family="Helvetica Neue, Arial, sans-serif" font-size="16" font-weight="700">Post-Amorim avg: 1.25</text>
  </g>

  <g transform="translate(70 1284)">
    <line x1="0" y1="0" x2="940" y2="0" stroke="#CFC3B3" stroke-width="2" />
    <text x="0" y="38" fill="#6B665F" font-family="Helvetica Neue, Arial, sans-serif" font-size="17">Data source: Understat | Open-play xG only | Updated April 26, 2026</text>
  </g>
</svg>