<svg xmlns="http://www.w3.org/2000/svg" width="1080" height="1350" viewBox="0 0 1080 1350" role="img" aria-label="Manchester United vs Leeds United prematch">
  <defs>
    <linearGradient id="bg" x1="0" y1="0" x2="1" y2="1">
      <stop offset="0%" stop-color="#040B14" />
      <stop offset="55%" stop-color="#0A1220" />
      <stop offset="100%" stop-color="#101C2E" />
    </linearGradient>
    <radialGradient id="leftGlow" cx="0.14" cy="0.1" r="0.5">
      <stop offset="0%" stop-color="#C8102E" stop-opacity="0.2" />
      <stop offset="100%" stop-color="#C8102E" stop-opacity="0" />
    </radialGradient>
    <radialGradient id="rightGlow" cx="0.86" cy="0.1" r="0.5">
      <stop offset="0%" stop-color="#2563EB" stop-opacity="0.18" />
      <stop offset="100%" stop-color="#2563EB" stop-opacity="0" />
    </radialGradient>
  </defs>
  <rect x="0" y="0" width="1080" height="1350" fill="url(#bg)" />
  <rect x="0" y="0" width="1080" height="1350" fill="url(#leftGlow)" />
  <rect x="0" y="0" width="1080" height="1350" fill="url(#rightGlow)" />
  <rect x="28" y="28" width="1024" height="1294" rx="38" fill="none" stroke="#1D2939" stroke-width="2" />

  <g transform="translate(78 74)">
    <rect x="0" y="0" width="150" height="40" rx="20" fill="#132032" />
    <text x="75" y="26" text-anchor="middle" fill="#E6D5B7" font-family="Helvetica Neue, Arial, sans-serif" font-size="16" font-weight="700" letter-spacing="1.4">MATCHUP</text>
    <text x="0" y="108" fill="#F6F1E8" font-family="Helvetica Neue, Arial, sans-serif" font-size="60" font-weight="800"><tspan x="0" dy="0">Old Trafford edge favors</tspan><tspan x="0" dy="64">United</tspan></text>
    <text x="0" y="214" fill="#9FA8BC" font-family="Helvetica Neue, Arial, sans-serif" font-size="24">Manchester United vs Leeds United | Monday, April 13, 2026</text>
  </g>

  <g transform="translate(78 264)">
          <rect x="0" y="0" width="450" height="734" rx="34" fill="#121D2D" stroke="#223146" stroke-width="2" />
          <rect x="0" y="0" width="450" height="10" rx="10" fill="#C8102E" />
          <text x="34" y="58" fill="#9FA8BC" font-family="Helvetica Neue, Arial, sans-serif" font-size="14" letter-spacing="1.4">HOME SPLIT</text>
          <text x="34" y="96" fill="#F6F1E8" font-family="Helvetica Neue, Arial, sans-serif" font-size="34" font-weight="800">Manchester United</text>
          <text x="34" y="152" fill="#667085" font-family="Georgia, Times New Roman, serif" font-size="22" font-style="italic">Venue points</text>
          <text x="34" y="236" fill="#C8102E" font-family="Helvetica Neue, Arial, sans-serif" font-size="106" font-weight="800">33</text>

          <rect x="220" y="130" width="188" height="42" rx="21" fill="#F59E0B" fill-opacity="0.18" />
          <text x="314" y="156" text-anchor="middle" fill="#F6F1E8" font-family="Helvetica Neue, Arial, sans-serif" font-size="18" font-weight="700">Venue W-D-L 10-3-2</text>
          <text x="34" y="286" fill="#9FA8BC" font-family="Helvetica Neue, Arial, sans-serif" font-size="15" letter-spacing="1.2">LAST 5 FORM</text>
          <text x="176" y="286" fill="#F6F1E8" font-family="Helvetica Neue, Arial, sans-serif" font-size="18" font-weight="700">3-1-1</text>
          <g transform="translate(34 306)"><g transform="translate(0 0)">
                  <rect x="0" y="0" width="50" height="32" rx="16" fill="#C8102E" fill-opacity="0.96" />
                  <text x="25" y="21" text-anchor="middle" fill="#F8FAFC" font-family="Helvetica Neue, Arial, sans-serif" font-size="16" font-weight="700">W</text>
                </g><g transform="translate(62 0)">
                  <rect x="0" y="0" width="50" height="32" rx="16" fill="#C8102E" fill-opacity="0.96" />
                  <text x="25" y="21" text-anchor="middle" fill="#F8FAFC" font-family="Helvetica Neue, Arial, sans-serif" font-size="16" font-weight="700">W</text>
                </g><g transform="translate(124 0)">
                  <rect x="0" y="0" width="50" height="32" rx="16" fill="#475467" fill-opacity="0.96" />
                  <text x="25" y="21" text-anchor="middle" fill="#F8FAFC" font-family="Helvetica Neue, Arial, sans-serif" font-size="16" font-weight="700">L</text>
                </g><g transform="translate(186 0)">
                  <rect x="0" y="0" width="50" height="32" rx="16" fill="#C8102E" fill-opacity="0.96" />
                  <text x="25" y="21" text-anchor="middle" fill="#F8FAFC" font-family="Helvetica Neue, Arial, sans-serif" font-size="16" font-weight="700">W</text>
                </g><g transform="translate(248 0)">
                  <rect x="0" y="0" width="50" height="32" rx="16" fill="#A78BFA" fill-opacity="0.96" />
                  <text x="25" y="21" text-anchor="middle" fill="#F8FAFC" font-family="Helvetica Neue, Arial, sans-serif" font-size="16" font-weight="700">D</text>
                </g></g>

          <g transform="translate(34 394)"><g transform="translate(0 0)">
      <text x="0" y="0" fill="#9FA8BC" font-family="Helvetica Neue, Arial, sans-serif" font-size="18" letter-spacing="0.2">xG</text>
      <text x="324" y="0" text-anchor="end" fill="#F6F1E8" font-family="Helvetica Neue, Arial, sans-serif" font-size="22" font-weight="700">31.58</text>
      <rect x="0" y="18" width="286" height="12" rx="6" fill="#1E293B" />
      <rect x="0" y="18" width="286" height="12" rx="6" fill="#C8102E" />
    </g><g transform="translate(0 84)">
      <text x="0" y="0" fill="#9FA8BC" font-family="Helvetica Neue, Arial, sans-serif" font-size="18" letter-spacing="0.2">xGA</text>
      <text x="324" y="0" text-anchor="end" fill="#F6F1E8" font-family="Helvetica Neue, Arial, sans-serif" font-size="22" font-weight="700">15.40</text>
      <rect x="0" y="18" width="286" height="12" rx="6" fill="#1E293B" />
      <rect x="0" y="18" width="286" height="12" rx="6" fill="#C8102E" />
    </g><g transform="translate(0 168)">
      <text x="0" y="0" fill="#9FA8BC" font-family="Helvetica Neue, Arial, sans-serif" font-size="18" letter-spacing="0.2">NPxGD</text>
      <text x="324" y="0" text-anchor="end" fill="#F6F1E8" font-family="Helvetica Neue, Arial, sans-serif" font-size="22" font-weight="700">15.42</text>
      <rect x="0" y="18" width="286" height="12" rx="6" fill="#1E293B" />
      <rect x="0" y="18" width="286" height="12" rx="6" fill="#C8102E" />
    </g><g transform="translate(0 252)">
      <text x="0" y="0" fill="#9FA8BC" font-family="Helvetica Neue, Arial, sans-serif" font-size="18" letter-spacing="0.2">xPTS</text>
      <text x="324" y="0" text-anchor="end" fill="#F6F1E8" font-family="Helvetica Neue, Arial, sans-serif" font-size="22" font-weight="700">31.16</text>
      <rect x="0" y="18" width="286" height="12" rx="6" fill="#1E293B" />
      <rect x="0" y="18" width="286" height="12" rx="6" fill="#C8102E" />
    </g></g>

          <line x1="34" y1="640" x2="416" y2="640" stroke="#223146" stroke-width="1" />
          <text x="34" y="672" fill="#9FA8BC" font-family="Helvetica Neue, Arial, sans-serif" font-size="14" letter-spacing="1.0">KEY PLAYER</text>
          <g transform="translate(34 700)"><text x="0" y="0" fill="#F6F1E8" font-family="Helvetica Neue, Arial, sans-serif" font-size="18" font-weight="600"><tspan x="0" dy="0">Bruno: 13.04 xA | 11.16 xG</tspan></text></g>
          <text x="34" y="702" fill="#9FA8BC" font-family="Helvetica Neue, Arial, sans-serif" font-size="14" font-weight="700">MUN</text>
        </g>
  <g transform="translate(552 264)">
          <rect x="0" y="0" width="450" height="734" rx="34" fill="#121D2D" stroke="#223146" stroke-width="2" />
          <rect x="0" y="0" width="450" height="10" rx="10" fill="#2563EB" />
          <text x="34" y="58" fill="#9FA8BC" font-family="Helvetica Neue, Arial, sans-serif" font-size="14" letter-spacing="1.4">AWAY SPLIT</text>
          <text x="34" y="96" fill="#F6F1E8" font-family="Helvetica Neue, Arial, sans-serif" font-size="34" font-weight="800">Leeds United</text>
          <text x="34" y="152" fill="#667085" font-family="Georgia, Times New Roman, serif" font-size="22" font-style="italic">Venue points</text>
          <text x="34" y="236" fill="#2563EB" font-family="Helvetica Neue, Arial, sans-serif" font-size="106" font-weight="800">10</text>

          <rect x="220" y="130" width="188" height="42" rx="21" fill="#FACC15" fill-opacity="0.18" />
          <text x="314" y="156" text-anchor="middle" fill="#F6F1E8" font-family="Helvetica Neue, Arial, sans-serif" font-size="18" font-weight="700">Venue W-D-L 1-7-7</text>
          <text x="34" y="286" fill="#9FA8BC" font-family="Helvetica Neue, Arial, sans-serif" font-size="15" letter-spacing="1.2">LAST 5 FORM</text>
          <text x="176" y="286" fill="#F6F1E8" font-family="Helvetica Neue, Arial, sans-serif" font-size="18" font-weight="700">0-3-2</text>
          <g transform="translate(34 306)"><g transform="translate(0 0)">
                  <rect x="0" y="0" width="50" height="32" rx="16" fill="#A78BFA" fill-opacity="0.96" />
                  <text x="25" y="21" text-anchor="middle" fill="#F8FAFC" font-family="Helvetica Neue, Arial, sans-serif" font-size="16" font-weight="700">D</text>
                </g><g transform="translate(62 0)">
                  <rect x="0" y="0" width="50" height="32" rx="16" fill="#475467" fill-opacity="0.96" />
                  <text x="25" y="21" text-anchor="middle" fill="#F8FAFC" font-family="Helvetica Neue, Arial, sans-serif" font-size="16" font-weight="700">L</text>
                </g><g transform="translate(124 0)">
                  <rect x="0" y="0" width="50" height="32" rx="16" fill="#475467" fill-opacity="0.96" />
                  <text x="25" y="21" text-anchor="middle" fill="#F8FAFC" font-family="Helvetica Neue, Arial, sans-serif" font-size="16" font-weight="700">L</text>
                </g><g transform="translate(186 0)">
                  <rect x="0" y="0" width="50" height="32" rx="16" fill="#A78BFA" fill-opacity="0.96" />
                  <text x="25" y="21" text-anchor="middle" fill="#F8FAFC" font-family="Helvetica Neue, Arial, sans-serif" font-size="16" font-weight="700">D</text>
                </g><g transform="translate(248 0)">
                  <rect x="0" y="0" width="50" height="32" rx="16" fill="#A78BFA" fill-opacity="0.96" />
                  <text x="25" y="21" text-anchor="middle" fill="#F8FAFC" font-family="Helvetica Neue, Arial, sans-serif" font-size="16" font-weight="700">D</text>
                </g></g>

          <g transform="translate(34 394)"><g transform="translate(0 0)">
      <text x="0" y="0" fill="#9FA8BC" font-family="Helvetica Neue, Arial, sans-serif" font-size="18" letter-spacing="0.2">xG</text>
      <text x="324" y="0" text-anchor="end" fill="#F6F1E8" font-family="Helvetica Neue, Arial, sans-serif" font-size="22" font-weight="700">18.44</text>
      <rect x="0" y="18" width="286" height="12" rx="6" fill="#1E293B" />
      <rect x="0" y="18" width="166" height="12" rx="6" fill="#2563EB" />
    </g><g transform="translate(0 84)">
      <text x="0" y="0" fill="#9FA8BC" font-family="Helvetica Neue, Arial, sans-serif" font-size="18" letter-spacing="0.2">xGA</text>
      <text x="324" y="0" text-anchor="end" fill="#F6F1E8" font-family="Helvetica Neue, Arial, sans-serif" font-size="22" font-weight="700">25.44</text>
      <rect x="0" y="18" width="286" height="12" rx="6" fill="#1E293B" />
      <rect x="0" y="18" width="173" height="12" rx="6" fill="#2563EB" />
    </g><g transform="translate(0 168)">
      <text x="0" y="0" fill="#9FA8BC" font-family="Helvetica Neue, Arial, sans-serif" font-size="18" letter-spacing="0.2">NPxGD</text>
      <text x="324" y="0" text-anchor="end" fill="#F6F1E8" font-family="Helvetica Neue, Arial, sans-serif" font-size="22" font-weight="700">-7.15</text>
      <rect x="0" y="18" width="286" height="12" rx="6" fill="#1E293B" />
      <rect x="0" y="18" width="36" height="12" rx="6" fill="#2563EB" />
    </g><g transform="translate(0 252)">
      <text x="0" y="0" fill="#9FA8BC" font-family="Helvetica Neue, Arial, sans-serif" font-size="18" letter-spacing="0.2">xPTS</text>
      <text x="324" y="0" text-anchor="end" fill="#F6F1E8" font-family="Helvetica Neue, Arial, sans-serif" font-size="22" font-weight="700">16.92</text>
      <rect x="0" y="18" width="286" height="12" rx="6" fill="#1E293B" />
      <rect x="0" y="18" width="155" height="12" rx="6" fill="#2563EB" />
    </g></g>

          <line x1="34" y1="640" x2="416" y2="640" stroke="#223146" stroke-width="1" />
          <text x="34" y="672" fill="#9FA8BC" font-family="Helvetica Neue, Arial, sans-serif" font-size="14" letter-spacing="1.0">KEY PLAYER</text>
          <g transform="translate(34 700)"><text x="0" y="0" fill="#F6F1E8" font-family="Helvetica Neue, Arial, sans-serif" font-size="18" font-weight="600"><tspan x="0" dy="0">DCL: 13.04 xG | Stach: 5.74 xA</tspan></text></g>
          <text x="34" y="702" fill="#9FA8BC" font-family="Helvetica Neue, Arial, sans-serif" font-size="14" font-weight="700">LEE</text>
        </g>

  <g transform="translate(78 1030)">
    <rect x="0" y="0" width="924" height="236" rx="30" fill="#0D1522" stroke="#223146" stroke-width="2" />
    <text x="32" y="48" fill="#F6F1E8" font-family="Helvetica Neue, Arial, sans-serif" font-size="24" font-weight="700" letter-spacing="1.2">WHY UNITED ARE FAVORED</text>
    <g transform="translate(40 72)">
              <circle cx="8" cy="10" r="4" fill="#C8A96A" />
              <text x="24" y="16" fill="#F6F1E8" font-family="Helvetica Neue, Arial, sans-serif" font-size="22" font-weight="400"><tspan x="24" dy="0">United at home: 33 points in 15 matches, with 31.58 xG</tspan><tspan x="24" dy="24">and just 15.40 xGA.</tspan></text>
            </g><g transform="translate(40 146)">
              <circle cx="8" cy="10" r="4" fill="#C8A96A" />
              <text x="24" y="16" fill="#F6F1E8" font-family="Helvetica Neue, Arial, sans-serif" font-size="22" font-weight="400"><tspan x="24" dy="0">Leeds away: 10 points in 15 matches, with 18.44 xG and</tspan><tspan x="24" dy="24">25.44 xGA.</tspan></text>
            </g><g transform="translate(40 220)">
              <circle cx="8" cy="10" r="4" fill="#C8A96A" />
              <text x="24" y="16" fill="#F6F1E8" font-family="Helvetica Neue, Arial, sans-serif" font-size="22" font-weight="400"><tspan x="24" dy="0">Leeds are on 33 points but 44.73 xPTS overall, so the</tspan><tspan x="24" dy="24">table underrates them by 11.73 points.</tspan></text>
            </g>
  </g>

  <g transform="translate(78 1288)">
    <rect x="0" y="0" width="924" height="170" rx="30" fill="#0D1522" stroke="#223146" stroke-width="2" />
    <text x="32" y="48" fill="#F6F1E8" font-family="Helvetica Neue, Arial, sans-serif" font-size="24" font-weight="700" letter-spacing="1.2">PLAYERS TO WATCH</text>
    <g transform="translate(40 92)">
              <circle cx="8" cy="10" r="4" fill="#C8A96A" />
              <text x="24" y="16" fill="#F6F1E8" font-family="Helvetica Neue, Arial, sans-serif" font-size="22" font-weight="700">Bruno Fernandes</text>
              <text x="250" y="16" fill="#9FA8BC" font-family="Helvetica Neue, Arial, sans-serif" font-size="20">United hub: 13.04 xA | 11.16 xG</text>
            </g><g transform="translate(40 156)">
              <circle cx="8" cy="10" r="4" fill="#C8A96A" />
              <text x="24" y="16" fill="#F6F1E8" font-family="Helvetica Neue, Arial, sans-serif" font-size="22" font-weight="700">Dominic Calvert-Lewin</text>
              <text x="250" y="16" fill="#9FA8BC" font-family="Helvetica Neue, Arial, sans-serif" font-size="20">Leeds main threat: 13.04 xG</text>
            </g><g transform="translate(40 220)">
              <circle cx="8" cy="10" r="4" fill="#C8A96A" />
              <text x="24" y="16" fill="#F6F1E8" font-family="Helvetica Neue, Arial, sans-serif" font-size="22" font-weight="700">Anton Stach</text>
              <text x="250" y="16" fill="#9FA8BC" font-family="Helvetica Neue, Arial, sans-serif" font-size="20">Leeds creator: 5.74 xA | Aaronson adds 5.45 xG</text>
            </g>
  </g>

  <text x="78" y="1308" fill="#667085" font-family="Helvetica Neue, Arial, sans-serif" font-size="18">Data source: Understat | Season: EPL 2025/26 | Built April 10, 2026</text>
</svg>