<svg width="1600" height="1100" xmlns="http://www.w3.org/2000/svg" xmlns:xlink="http://www.w3.org/1999/xlink" version="1.1" baseProfile="full" viewBox="0 0 1600 1100">
<rect width="1600" height="1100" x="0" y="0" fill="#08111D"></rect>
<text dominant-baseline="central" text-anchor="start" style="font: 700 14px Helvetica Neue" xml:space="preserve" y="7" transform="translate(190 184)" fill="#FFB3BB">AMORIM ERA</text>
<text dominant-baseline="central" text-anchor="start" style="font: 700 14px Helvetica Neue" xml:space="preserve" y="7" transform="translate(1324.24 184)" fill="#FFE08A">CARRICK ERA</text>
<path d="M88 960.5L1438.9 960.5" fill="none" pointer-events="visible" stroke="rgb(143,167,193)" stroke-opacity="0.12" class="zr0-cls-0"></path>
<path d="M88 831.5L1438.9 831.5" fill="none" pointer-events="visible" stroke="rgb(143,167,193)" stroke-opacity="0.12" class="zr0-cls-0"></path>
<path d="M88 702.5L1438.9 702.5" fill="none" pointer-events="visible" stroke="rgb(143,167,193)" stroke-opacity="0.12" class="zr0-cls-0"></path>
<path d="M88 574.5L1438.9 574.5" fill="none" pointer-events="visible" stroke="rgb(143,167,193)" stroke-opacity="0.12" class="zr0-cls-0"></path>
<path d="M88 445.5L1438.9 445.5" fill="none" pointer-events="visible" stroke="rgb(143,167,193)" stroke-opacity="0.12" class="zr0-cls-0"></path>
<path d="M88 316.5L1438.9 316.5" fill="none" pointer-events="visible" stroke="rgb(143,167,193)" stroke-opacity="0.12" class="zr0-cls-0"></path>
<path d="M88 188.5L1438.9 188.5" fill="none" pointer-events="visible" stroke="rgb(143,167,193)" stroke-opacity="0.12" class="zr0-cls-0"></path>
<path d="M88.5 188L88.5 960" fill="none" pointer-events="visible" stroke="rgb(143,167,193)" stroke-opacity="0.08" class="zr0-cls-0"></path>
<path d="M133.5 188L133.5 960" fill="none" pointer-events="visible" stroke="rgb(143,167,193)" stroke-opacity="0.08" class="zr0-cls-0"></path>
<path d="M178.5 188L178.5 960" fill="none" pointer-events="visible" stroke="rgb(143,167,193)" stroke-opacity="0.08" class="zr0-cls-0"></path>
<path d="M223.5 188L223.5 960" fill="none" pointer-events="visible" stroke="rgb(143,167,193)" stroke-opacity="0.08" class="zr0-cls-0"></path>
<path d="M268.5 188L268.5 960" fill="none" pointer-events="visible" stroke="rgb(143,167,193)" stroke-opacity="0.08" class="zr0-cls-0"></path>
<path d="M313.5 188L313.5 960" fill="none" pointer-events="visible" stroke="rgb(143,167,193)" stroke-opacity="0.08" class="zr0-cls-0"></path>
<path d="M358.5 188L358.5 960" fill="none" pointer-events="visible" stroke="rgb(143,167,193)" stroke-opacity="0.08" class="zr0-cls-0"></path>
<path d="M403.5 188L403.5 960" fill="none" pointer-events="visible" stroke="rgb(143,167,193)" stroke-opacity="0.08" class="zr0-cls-0"></path>
<path d="M448.5 188L448.5 960" fill="none" pointer-events="visible" stroke="rgb(143,167,193)" stroke-opacity="0.08" class="zr0-cls-0"></path>
<path d="M493.5 188L493.5 960" fill="none" pointer-events="visible" stroke="rgb(143,167,193)" stroke-opacity="0.08" class="zr0-cls-0"></path>
<path d="M538.5 188L538.5 960" fill="none" pointer-events="visible" stroke="rgb(143,167,193)" stroke-opacity="0.08" class="zr0-cls-0"></path>
<path d="M583.5 188L583.5 960" fill="none" pointer-events="visible" stroke="rgb(143,167,193)" stroke-opacity="0.08" class="zr0-cls-0"></path>
<path d="M628.5 188L628.5 960" fill="none" pointer-events="visible" stroke="rgb(143,167,193)" stroke-opacity="0.08" class="zr0-cls-0"></path>
<path d="M673.5 188L673.5 960" fill="none" pointer-events="visible" stroke="rgb(143,167,193)" stroke-opacity="0.08" class="zr0-cls-0"></path>
<path d="M718.5 188L718.5 960" fill="none" pointer-events="visible" stroke="rgb(143,167,193)" stroke-opacity="0.08" class="zr0-cls-0"></path>
<path d="M763.5 188L763.5 960" fill="none" pointer-events="visible" stroke="rgb(143,167,193)" stroke-opacity="0.08" class="zr0-cls-0"></path>
<path d="M808.5 188L808.5 960" fill="none" pointer-events="visible" stroke="rgb(143,167,193)" stroke-opacity="0.08" class="zr0-cls-0"></path>
<path d="M853.5 188L853.5 960" fill="none" pointer-events="visible" stroke="rgb(143,167,193)" stroke-opacity="0.08" class="zr0-cls-0"></path>
<path d="M898.5 188L898.5 960" fill="none" pointer-events="visible" stroke="rgb(143,167,193)" stroke-opacity="0.08" class="zr0-cls-0"></path>
<path d="M943.5 188L943.5 960" fill="none" pointer-events="visible" stroke="rgb(143,167,193)" stroke-opacity="0.08" class="zr0-cls-0"></path>
<path d="M988.5 188L988.5 960" fill="none" pointer-events="visible" stroke="rgb(143,167,193)" stroke-opacity="0.08" class="zr0-cls-0"></path>
<path d="M1033.5 188L1033.5 960" fill="none" pointer-events="visible" stroke="rgb(143,167,193)" stroke-opacity="0.08" class="zr0-cls-0"></path>
<path d="M1078.5 188L1078.5 960" fill="none" pointer-events="visible" stroke="rgb(143,167,193)" stroke-opacity="0.08" class="zr0-cls-0"></path>
<path d="M1123.5 188L1123.5 960" fill="none" pointer-events="visible" stroke="rgb(143,167,193)" stroke-opacity="0.08" class="zr0-cls-0"></path>
<path d="M1168.5 188L1168.5 960" fill="none" pointer-events="visible" stroke="rgb(143,167,193)" stroke-opacity="0.08" class="zr0-cls-0"></path>
<path d="M1213.5 188L1213.5 960" fill="none" pointer-events="visible" stroke="rgb(143,167,193)" stroke-opacity="0.08" class="zr0-cls-0"></path>
<path d="M1259.5 188L1259.5 960" fill="none" pointer-events="visible" stroke="rgb(143,167,193)" stroke-opacity="0.08" class="zr0-cls-0"></path>
<path d="M1304.5 188L1304.5 960" fill="none" pointer-events="visible" stroke="rgb(143,167,193)" stroke-opacity="0.08" class="zr0-cls-0"></path>
<path d="M1349.5 188L1349.5 960" fill="none" pointer-events="visible" stroke="rgb(143,167,193)" stroke-opacity="0.08" class="zr0-cls-0"></path>
<path d="M1394.5 188L1394.5 960" fill="none" pointer-events="visible" stroke="rgb(143,167,193)" stroke-opacity="0.08" class="zr0-cls-0"></path>
<path d="M1439.5 188L1439.5 960" fill="none" pointer-events="visible" stroke="rgb(143,167,193)" stroke-opacity="0.08" class="zr0-cls-0"></path>
<text dominant-baseline="central" text-anchor="middle" style="font-size:13px;font-family:sans-serif;" xml:space="preserve" y="-6.5" transform="translate(88 173)" fill="#9FB0C6">Open-play xG</text>
<text dominant-baseline="central" text-anchor="start" style="font-size:13px;font-family:sans-serif;" xml:space="preserve" transform="translate(1453.87 960)" fill="#9FB0C6">League match sequence</text>
<path d="M88 960.5L1438.9 960.5" fill="none" pointer-events="visible" stroke="#233247" stroke-linecap="round" class="zr0-cls-0"></path>
<path d="M88 960.5L83 960.5" fill="none" pointer-events="visible" stroke="#54555a" class="zr0-cls-0"></path>
<path d="M88 831.5L83 831.5" fill="none" pointer-events="visible" stroke="#54555a" class="zr0-cls-0"></path>
<path d="M88 702.5L83 702.5" fill="none" pointer-events="visible" stroke="#54555a" class="zr0-cls-0"></path>
<path d="M88 574.5L83 574.5" fill="none" pointer-events="visible" stroke="#54555a" class="zr0-cls-0"></path>
<path d="M88 445.5L83 445.5" fill="none" pointer-events="visible" stroke="#54555a" class="zr0-cls-0"></path>
<path d="M88 316.5L83 316.5" fill="none" pointer-events="visible" stroke="#54555a" class="zr0-cls-0"></path>
<path d="M88 188.5L83 188.5" fill="none" pointer-events="visible" stroke="#54555a" class="zr0-cls-0"></path>
<path d="M133.5 960L133.5 965" fill="none" pointer-events="visible" stroke="#233247" class="zr0-cls-0"></path>
<path d="M178.5 960L178.5 965" fill="none" pointer-events="visible" stroke="#233247" class="zr0-cls-0"></path>
<path d="M223.5 960L223.5 965" fill="none" pointer-events="visible" stroke="#233247" class="zr0-cls-0"></path>
<path d="M268.5 960L268.5 965" fill="none" pointer-events="visible" stroke="#233247" class="zr0-cls-0"></path>
<path d="M313.5 960L313.5 965" fill="none" pointer-events="visible" stroke="#233247" class="zr0-cls-0"></path>
<path d="M358.5 960L358.5 965" fill="none" pointer-events="visible" stroke="#233247" class="zr0-cls-0"></path>
<path d="M403.5 960L403.5 965" fill="none" pointer-events="visible" stroke="#233247" class="zr0-cls-0"></path>
<path d="M448.5 960L448.5 965" fill="none" pointer-events="visible" stroke="#233247" class="zr0-cls-0"></path>
<path d="M493.5 960L493.5 965" fill="none" pointer-events="visible" stroke="#233247" class="zr0-cls-0"></path>
<path d="M538.5 960L538.5 965" fill="none" pointer-events="visible" stroke="#233247" class="zr0-cls-0"></path>
<path d="M583.5 960L583.5 965" fill="none" pointer-events="visible" stroke="#233247" class="zr0-cls-0"></path>
<path d="M628.5 960L628.5 965" fill="none" pointer-events="visible" stroke="#233247" class="zr0-cls-0"></path>
<path d="M673.5 960L673.5 965" fill="none" pointer-events="visible" stroke="#233247" class="zr0-cls-0"></path>
<path d="M718.5 960L718.5 965" fill="none" pointer-events="visible" stroke="#233247" class="zr0-cls-0"></path>
<path d="M763.5 960L763.5 965" fill="none" pointer-events="visible" stroke="#233247" class="zr0-cls-0"></path>
<path d="M808.5 960L808.5 965" fill="none" pointer-events="visible" stroke="#233247" class="zr0-cls-0"></path>
<path d="M853.5 960L853.5 965" fill="none" pointer-events="visible" stroke="#233247" class="zr0-cls-0"></path>
<path d="M898.5 960L898.5 965" fill="none" pointer-events="visible" stroke="#233247" class="zr0-cls-0"></path>
<path d="M943.5 960L943.5 965" fill="none" pointer-events="visible" stroke="#233247" class="zr0-cls-0"></path>
<path d="M988.5 960L988.5 965" fill="none" pointer-events="visible" stroke="#233247" class="zr0-cls-0"></path>
<path d="M1033.5 960L1033.5 965" fill="none" pointer-events="visible" stroke="#233247" class="zr0-cls-0"></path>
<path d="M1078.5 960L1078.5 965" fill="none" pointer-events="visible" stroke="#233247" class="zr0-cls-0"></path>
<path d="M1123.5 960L1123.5 965" fill="none" pointer-events="visible" stroke="#233247" class="zr0-cls-0"></path>
<path d="M1168.5 960L1168.5 965" fill="none" pointer-events="visible" stroke="#233247" class="zr0-cls-0"></path>
<path d="M1213.5 960L1213.5 965" fill="none" pointer-events="visible" stroke="#233247" class="zr0-cls-0"></path>
<path d="M1259.5 960L1259.5 965" fill="none" pointer-events="visible" stroke="#233247" class="zr0-cls-0"></path>
<path d="M1304.5 960L1304.5 965" fill="none" pointer-events="visible" stroke="#233247" class="zr0-cls-0"></path>
<path d="M1349.5 960L1349.5 965" fill="none" pointer-events="visible" stroke="#233247" class="zr0-cls-0"></path>
<path d="M1394.5 960L1394.5 965" fill="none" pointer-events="visible" stroke="#233247" class="zr0-cls-0"></path>
<text dominant-baseline="central" text-anchor="end" style="font-size:12px;font-family:sans-serif;" transform="translate(80 960)" fill="#8EA0B8">0</text>
<text dominant-baseline="central" text-anchor="end" style="font-size:12px;font-family:sans-serif;" transform="translate(80 831.3333)" fill="#8EA0B8">0.5</text>
<text dominant-baseline="central" text-anchor="end" style="font-size:12px;font-family:sans-serif;" transform="translate(80 702.6667)" fill="#8EA0B8">1</text>
<text dominant-baseline="central" text-anchor="end" style="font-size:12px;font-family:sans-serif;" transform="translate(80 574)" fill="#8EA0B8">1.5</text>
<text dominant-baseline="central" text-anchor="end" style="font-size:12px;font-family:sans-serif;" transform="translate(80 445.3333)" fill="#8EA0B8">2</text>
<text dominant-baseline="central" text-anchor="end" style="font-size:12px;font-family:sans-serif;" transform="translate(80 316.6667)" fill="#8EA0B8">2.5</text>
<text dominant-baseline="central" text-anchor="end" style="font-size:12px;font-family:sans-serif;" transform="translate(80 188)" fill="#8EA0B8">3</text>
<text dominant-baseline="central" text-anchor="middle" style="font-size:12px;font-family:sans-serif;" xml:space="preserve" y="6" transform="translate(133.029 968)" fill="#8EA0B8">function(v){return Number.isInteger(v)?v:&#39;&#39;;}</text>
<text dominant-baseline="central" text-anchor="middle" style="font-size:12px;font-family:sans-serif;" xml:space="preserve" y="6" transform="translate(178.058 968)" fill="#8EA0B8">function(v){return Number.isInteger(v)?v:&#39;&#39;;}</text>
<text dominant-baseline="central" text-anchor="middle" style="font-size:12px;font-family:sans-serif;" xml:space="preserve" y="6" transform="translate(223.087 968)" fill="#8EA0B8">function(v){return Number.isInteger(v)?v:&#39;&#39;;}</text>
<text dominant-baseline="central" text-anchor="middle" style="font-size:12px;font-family:sans-serif;" xml:space="preserve" y="6" transform="translate(268.116 968)" fill="#8EA0B8">function(v){return Number.isInteger(v)?v:&#39;&#39;;}</text>
<text dominant-baseline="central" text-anchor="middle" style="font-size:12px;font-family:sans-serif;" xml:space="preserve" y="6" transform="translate(313.145 968)" fill="#8EA0B8">function(v){return Number.isInteger(v)?v:&#39;&#39;;}</text>
<text dominant-baseline="central" text-anchor="middle" style="font-size:12px;font-family:sans-serif;" xml:space="preserve" y="6" transform="translate(358.174 968)" fill="#8EA0B8">function(v){return Number.isInteger(v)?v:&#39;&#39;;}</text>
<text dominant-baseline="central" text-anchor="middle" style="font-size:12px;font-family:sans-serif;" xml:space="preserve" y="6" transform="translate(403.203 968)" fill="#8EA0B8">function(v){return Number.isInteger(v)?v:&#39;&#39;;}</text>
<text dominant-baseline="central" text-anchor="middle" style="font-size:12px;font-family:sans-serif;" xml:space="preserve" y="6" transform="translate(448.232 968)" fill="#8EA0B8">function(v){return Number.isInteger(v)?v:&#39;&#39;;}</text>
<text dominant-baseline="central" text-anchor="middle" style="font-size:12px;font-family:sans-serif;" xml:space="preserve" y="6" transform="translate(493.261 968)" fill="#8EA0B8">function(v){return Number.isInteger(v)?v:&#39;&#39;;}</text>
<text dominant-baseline="central" text-anchor="middle" style="font-size:12px;font-family:sans-serif;" xml:space="preserve" y="6" transform="translate(538.29 968)" fill="#8EA0B8">function(v){return Number.isInteger(v)?v:&#39;&#39;;}</text>
<text dominant-baseline="central" text-anchor="middle" style="font-size:12px;font-family:sans-serif;" xml:space="preserve" y="6" transform="translate(583.319 968)" fill="#8EA0B8">function(v){return Number.isInteger(v)?v:&#39;&#39;;}</text>
<text dominant-baseline="central" text-anchor="middle" style="font-size:12px;font-family:sans-serif;" xml:space="preserve" y="6" transform="translate(628.348 968)" fill="#8EA0B8">function(v){return Number.isInteger(v)?v:&#39;&#39;;}</text>
<text dominant-baseline="central" text-anchor="middle" style="font-size:12px;font-family:sans-serif;" xml:space="preserve" y="6" transform="translate(673.377 968)" fill="#8EA0B8">function(v){return Number.isInteger(v)?v:&#39;&#39;;}</text>
<text dominant-baseline="central" text-anchor="middle" style="font-size:12px;font-family:sans-serif;" xml:space="preserve" y="6" transform="translate(718.406 968)" fill="#8EA0B8">function(v){return Number.isInteger(v)?v:&#39;&#39;;}</text>
<text dominant-baseline="central" text-anchor="middle" style="font-size:12px;font-family:sans-serif;" xml:space="preserve" y="6" transform="translate(763.435 968)" fill="#8EA0B8">function(v){return Number.isInteger(v)?v:&#39;&#39;;}</text>
<text dominant-baseline="central" text-anchor="middle" style="font-size:12px;font-family:sans-serif;" xml:space="preserve" y="6" transform="translate(808.464 968)" fill="#8EA0B8">function(v){return Number.isInteger(v)?v:&#39;&#39;;}</text>
<text dominant-baseline="central" text-anchor="middle" style="font-size:12px;font-family:sans-serif;" xml:space="preserve" y="6" transform="translate(853.493 968)" fill="#8EA0B8">function(v){return Number.isInteger(v)?v:&#39;&#39;;}</text>
<text dominant-baseline="central" text-anchor="middle" style="font-size:12px;font-family:sans-serif;" xml:space="preserve" y="6" transform="translate(898.522 968)" fill="#8EA0B8">function(v){return Number.isInteger(v)?v:&#39;&#39;;}</text>
<text dominant-baseline="central" text-anchor="middle" style="font-size:12px;font-family:sans-serif;" xml:space="preserve" y="6" transform="translate(943.551 968)" fill="#8EA0B8">function(v){return Number.isInteger(v)?v:&#39;&#39;;}</text>
<text dominant-baseline="central" text-anchor="middle" style="font-size:12px;font-family:sans-serif;" xml:space="preserve" y="6" transform="translate(988.58 968)" fill="#8EA0B8">function(v){return Number.isInteger(v)?v:&#39;&#39;;}</text>
<text dominant-baseline="central" text-anchor="middle" style="font-size:12px;font-family:sans-serif;" xml:space="preserve" y="6" transform="translate(1033.609 968)" fill="#8EA0B8">function(v){return Number.isInteger(v)?v:&#39;&#39;;}</text>
<text dominant-baseline="central" text-anchor="middle" style="font-size:12px;font-family:sans-serif;" xml:space="preserve" y="6" transform="translate(1078.638 968)" fill="#8EA0B8">function(v){return Number.isInteger(v)?v:&#39;&#39;;}</text>
<text dominant-baseline="central" text-anchor="middle" style="font-size:12px;font-family:sans-serif;" xml:space="preserve" y="6" transform="translate(1123.667 968)" fill="#8EA0B8">function(v){return Number.isInteger(v)?v:&#39;&#39;;}</text>
<text dominant-baseline="central" text-anchor="middle" style="font-size:12px;font-family:sans-serif;" xml:space="preserve" y="6" transform="translate(1168.696 968)" fill="#8EA0B8">function(v){return Number.isInteger(v)?v:&#39;&#39;;}</text>
<text dominant-baseline="central" text-anchor="middle" style="font-size:12px;font-family:sans-serif;" xml:space="preserve" y="6" transform="translate(1213.725 968)" fill="#8EA0B8">function(v){return Number.isInteger(v)?v:&#39;&#39;;}</text>
<text dominant-baseline="central" text-anchor="middle" style="font-size:12px;font-family:sans-serif;" xml:space="preserve" y="6" transform="translate(1258.754 968)" fill="#8EA0B8">function(v){return Number.isInteger(v)?v:&#39;&#39;;}</text>
<text dominant-baseline="central" text-anchor="middle" style="font-size:12px;font-family:sans-serif;" xml:space="preserve" y="6" transform="translate(1303.783 968)" fill="#8EA0B8">function(v){return Number.isInteger(v)?v:&#39;&#39;;}</text>
<text dominant-baseline="central" text-anchor="middle" style="font-size:12px;font-family:sans-serif;" xml:space="preserve" y="6" transform="translate(1348.812 968)" fill="#8EA0B8">function(v){return Number.isInteger(v)?v:&#39;&#39;;}</text>
<text dominant-baseline="central" text-anchor="middle" style="font-size:12px;font-family:sans-serif;" xml:space="preserve" y="6" transform="translate(1393.841 968)" fill="#8EA0B8">function(v){return Number.isInteger(v)?v:&#39;&#39;;}</text>
<polygon points="88 960 943.6 960 943.6 188 88 188" fill="rgb(215,76,91)" fill-opacity="0.06" stroke="#D74C5B" stroke-width="0" ecmeta_series_index="0" ecmeta_data_index="0" ecmeta_ssr_type="chart" ecmeta_silent="true" class="zr0-cls-0"></polygon>
<polygon points="988.6 960 1438.9 960 1438.9 188 988.6 188" fill="rgb(241,199,91)" fill-opacity="0.05" stroke="#F1C75B" stroke-width="0" ecmeta_series_index="2" ecmeta_data_index="0" ecmeta_ssr_type="chart" ecmeta_silent="true" class="zr0-cls-0"></polygon>
<g clip-path="url(#zr0-c0)">
<path d="M88 651.5L133 810L178.1 215.8L223.1 681.3L268.1 761.3L313.1 339.3L358.2 506.3L403.2 517.6L448.2 481.1L493.3 818.7L538.3 811L583.3 414.5L628.3 483.2L673.4 365.3L718.4 299.4L763.4 243.8L808.5 643.7L853.5 840.6L898.5 743.3L943.6 639.6L943.6 960L898.5 960L853.5 960L808.5 960L763.4 960L718.4 960L673.4 960L628.3 960L583.3 960L538.3 960L493.3 960L448.2 960L403.2 960L358.2 960L313.1 960L268.1 960L223.1 960L178.1 960L133 960L88 960Z" fill="rgb(215,76,91)" fill-opacity="0.06999999999999999" class="zr0-cls-2"></path>
</g>
<g clip-path="url(#zr0-c1)">
<path d="M988.6 273.9L1033.6 795L1078.6 625.5L1123.7 530L1168.7 801.2L1213.7 594.6L1258.8 702.2L1303.8 642.5L1348.8 564.2L1393.8 761.6L1438.9 790.4L1438.9 960L1393.8 960L1348.8 960L1303.8 960L1258.8 960L1213.7 960L1168.7 960L1123.7 960L1078.6 960L1033.6 960L988.6 960Z" fill="rgb(241,199,91)" fill-opacity="0.055999999999999994" class="zr0-cls-3"></path>
</g>
<g clip-path="url(#zr0-c0)">
<path d="M88 651.5L133 810L178.1 215.8L223.1 681.3L268.1 761.3L313.1 339.3L358.2 506.3L403.2 517.6L448.2 481.1L493.3 818.7L538.3 811L583.3 414.5L628.3 483.2L673.4 365.3L718.4 299.4L763.4 243.8L808.5 643.7L853.5 840.6L898.5 743.3L943.6 639.6" fill="none" pointer-events="visible" stroke="#D74C5B" stroke-width="2" stroke-linejoin="bevel" class="zr0-cls-4"></path>
</g>
<g clip-path="url(#zr0-c1)">
<path d="M988.6 273.9L1033.6 795L1078.6 625.5L1123.7 530L1168.7 801.2L1213.7 594.6L1258.8 702.2L1303.8 642.5L1348.8 564.2L1393.8 761.6L1438.9 790.4" fill="none" pointer-events="visible" stroke="#F1C75B" stroke-width="2" stroke-linejoin="bevel" class="zr0-cls-4"></path>
</g>
<path d="M1 0A1 1 0 1 1 1 -0.1A1 1 0 0 1 1 0" transform="matrix(4,0,0,4,88,651.4573)" fill="#D74C5B" ecmeta_series_index="0" ecmeta_data_index="0" ecmeta_ssr_type="chart" class="zr0-cls-5"></path>
<path d="M1 0A1 1 0 1 1 1 -0.1A1 1 0 0 1 1 0" transform="matrix(4,0,0,4,133.029,809.9747)" fill="#D74C5B" ecmeta_series_index="0" ecmeta_data_index="1" ecmeta_ssr_type="chart" class="zr0-cls-5"></path>
<path d="M1 0A1 1 0 1 1 1 -0.1A1 1 0 0 1 1 0" transform="matrix(4,0,0,4,178.058,215.792)" fill="#D74C5B" ecmeta_series_index="0" ecmeta_data_index="2" ecmeta_ssr_type="chart" class="zr0-cls-5"></path>
<path d="M1 0A1 1 0 1 1 1 -0.1A1 1 0 0 1 1 0" transform="matrix(4,0,0,4,223.087,681.308)" fill="#D74C5B" ecmeta_series_index="0" ecmeta_data_index="3" ecmeta_ssr_type="chart" class="zr0-cls-5"></path>
<path d="M1 0A1 1 0 1 1 1 -0.1A1 1 0 0 1 1 0" transform="matrix(4,0,0,4,268.116,761.3387)" fill="#D74C5B" ecmeta_series_index="0" ecmeta_data_index="4" ecmeta_ssr_type="chart" class="zr0-cls-5"></path>
<path d="M1 0A1 1 0 1 1 1 -0.1A1 1 0 0 1 1 0" transform="matrix(4,0,0,4,313.145,339.312)" fill="#D74C5B" ecmeta_series_index="0" ecmeta_data_index="5" ecmeta_ssr_type="chart" class="zr0-cls-5"></path>
<path d="M1 0A1 1 0 1 1 1 -0.1A1 1 0 0 1 1 0" transform="matrix(4,0,0,4,358.174,506.3213)" fill="#D74C5B" ecmeta_series_index="0" ecmeta_data_index="6" ecmeta_ssr_type="chart" class="zr0-cls-5"></path>
<path d="M1 0A1 1 0 1 1 1 -0.1A1 1 0 0 1 1 0" transform="matrix(4,0,0,4,403.203,517.644)" fill="#D74C5B" ecmeta_series_index="0" ecmeta_data_index="7" ecmeta_ssr_type="chart" class="zr0-cls-5"></path>
<path d="M1 0A1 1 0 1 1 1 -0.1A1 1 0 0 1 1 0" transform="matrix(4,0,0,4,448.232,481.1027)" fill="#D74C5B" ecmeta_series_index="0" ecmeta_data_index="8" ecmeta_ssr_type="chart" class="zr0-cls-5"></path>
<path d="M1 0A1 1 0 1 1 1 -0.1A1 1 0 0 1 1 0" transform="matrix(4,0,0,4,493.261,818.724)" fill="#D74C5B" ecmeta_series_index="0" ecmeta_data_index="9" ecmeta_ssr_type="chart" class="zr0-cls-5"></path>
<path d="M1 0A1 1 0 1 1 1 -0.1A1 1 0 0 1 1 0" transform="matrix(4,0,0,4,538.29,811.004)" fill="#D74C5B" ecmeta_series_index="0" ecmeta_data_index="10" ecmeta_ssr_type="chart" class="zr0-cls-5"></path>
<path d="M1 0A1 1 0 1 1 1 -0.1A1 1 0 0 1 1 0" transform="matrix(4,0,0,4,583.319,414.4533)" fill="#D74C5B" ecmeta_series_index="0" ecmeta_data_index="11" ecmeta_ssr_type="chart" class="zr0-cls-5"></path>
<path d="M1 0A1 1 0 1 1 1 -0.1A1 1 0 0 1 1 0" transform="matrix(4,0,0,4,628.348,483.1613)" fill="#D74C5B" ecmeta_series_index="0" ecmeta_data_index="12" ecmeta_ssr_type="chart" class="zr0-cls-5"></path>
<path d="M1 0A1 1 0 1 1 1 -0.1A1 1 0 0 1 1 0" transform="matrix(4,0,0,4,673.377,365.3027)" fill="#D74C5B" ecmeta_series_index="0" ecmeta_data_index="13" ecmeta_ssr_type="chart" class="zr0-cls-5"></path>
<path d="M1 0A1 1 0 1 1 1 -0.1A1 1 0 0 1 1 0" transform="matrix(4,0,0,4,718.406,299.4253)" fill="#D74C5B" ecmeta_series_index="0" ecmeta_data_index="14" ecmeta_ssr_type="chart" class="zr0-cls-5"></path>
<path d="M1 0A1 1 0 1 1 1 -0.1A1 1 0 0 1 1 0" transform="matrix(4,0,0,4,763.435,243.8413)" fill="#D74C5B" ecmeta_series_index="0" ecmeta_data_index="15" ecmeta_ssr_type="chart" class="zr0-cls-5"></path>
<path d="M1 0A1 1 0 1 1 1 -0.1A1 1 0 0 1 1 0" transform="matrix(4,0,0,4,808.464,643.7373)" fill="#D74C5B" ecmeta_series_index="0" ecmeta_data_index="16" ecmeta_ssr_type="chart" class="zr0-cls-5"></path>
<path d="M1 0A1 1 0 1 1 1 -0.1A1 1 0 0 1 1 0" transform="matrix(4,0,0,4,853.493,840.5974)" fill="#D74C5B" ecmeta_series_index="0" ecmeta_data_index="17" ecmeta_ssr_type="chart" class="zr0-cls-5"></path>
<path d="M1 0A1 1 0 1 1 1 -0.1A1 1 0 0 1 1 0" transform="matrix(4,0,0,4,898.522,743.3253)" fill="#D74C5B" ecmeta_series_index="0" ecmeta_data_index="18" ecmeta_ssr_type="chart" class="zr0-cls-5"></path>
<path d="M1 0A1 1 0 1 1 1 -0.1A1 1 0 0 1 1 0" transform="matrix(4,0,0,4,943.551,639.62)" fill="#D74C5B" ecmeta_series_index="0" ecmeta_data_index="19" ecmeta_ssr_type="chart" class="zr0-cls-5"></path>
<path d="M0 -1L1 0L0 1L-1 0Z" transform="matrix(4.5,0,0,4.5,988.58,273.9493)" fill="#F1C75B" ecmeta_series_index="2" ecmeta_data_index="0" ecmeta_ssr_type="chart" class="zr0-cls-6"></path>
<path d="M0 -1L1 0L0 1L-1 0Z" transform="matrix(4.5,0,0,4.5,1033.609,795.0493)" fill="#F1C75B" ecmeta_series_index="2" ecmeta_data_index="1" ecmeta_ssr_type="chart" class="zr0-cls-6"></path>
<path d="M0 -1L1 0L0 1L-1 0Z" transform="matrix(4.5,0,0,4.5,1078.6379,625.4667)" fill="#F1C75B" ecmeta_series_index="2" ecmeta_data_index="2" ecmeta_ssr_type="chart" class="zr0-cls-6"></path>
<path d="M0 -1L1 0L0 1L-1 0Z" transform="matrix(4.5,0,0,4.5,1123.667,529.996)" fill="#F1C75B" ecmeta_series_index="2" ecmeta_data_index="3" ecmeta_ssr_type="chart" class="zr0-cls-6"></path>
<path d="M0 -1L1 0L0 1L-1 0Z" transform="matrix(4.5,0,0,4.5,1168.696,801.2253)" fill="#F1C75B" ecmeta_series_index="2" ecmeta_data_index="4" ecmeta_ssr_type="chart" class="zr0-cls-6"></path>
<path d="M0 -1L1 0L0 1L-1 0Z" transform="matrix(4.5,0,0,4.5,1213.725,594.5867)" fill="#F1C75B" ecmeta_series_index="2" ecmeta_data_index="5" ecmeta_ssr_type="chart" class="zr0-cls-6"></path>
<path d="M0 -1L1 0L0 1L-1 0Z" transform="matrix(4.5,0,0,4.5,1258.754,702.152)" fill="#F1C75B" ecmeta_series_index="2" ecmeta_data_index="6" ecmeta_ssr_type="chart" class="zr0-cls-6"></path>
<path d="M0 -1L1 0L0 1L-1 0Z" transform="matrix(4.5,0,0,4.5,1303.783,642.4507)" fill="#F1C75B" ecmeta_series_index="2" ecmeta_data_index="7" ecmeta_ssr_type="chart" class="zr0-cls-6"></path>
<path d="M0 -1L1 0L0 1L-1 0Z" transform="matrix(4.5,0,0,4.5,1348.812,564.2213)" fill="#F1C75B" ecmeta_series_index="2" ecmeta_data_index="8" ecmeta_ssr_type="chart" class="zr0-cls-6"></path>
<path d="M0 -1L1 0L0 1L-1 0Z" transform="matrix(4.5,0,0,4.5,1393.8409,761.596)" fill="#F1C75B" ecmeta_series_index="2" ecmeta_data_index="9" ecmeta_ssr_type="chart" class="zr0-cls-6"></path>
<path d="M0 -1L1 0L0 1L-1 0Z" transform="matrix(4.5,0,0,4.5,1438.87,790.4174)" fill="#F1C75B" ecmeta_series_index="2" ecmeta_data_index="10" ecmeta_ssr_type="chart" class="zr0-cls-6"></path>
<path d="M-5 -5l505.1 0l0 23l-505.1 0Z" transform="translate(1059.9 153)" fill="rgb(0,0,0)" fill-opacity="0" stroke="#b7b9be" stroke-width="0" class="zr0-cls-0"></path>
<path d="M0 7L25 7" transform="translate(1060.9 152.5)" fill="#000" stroke="#D74C5B" stroke-width="2" stroke-linecap="butt" stroke-miterlimit="10" class="zr0-cls-0"></path>
<path d="M18.1 7A5.6 5.6 0 1 1 18.1 6.4A5.6 5.6 0 0 1 18.1 7" transform="translate(1060.9 152.5)" fill="#D74C5B" class="zr0-cls-0"></path>
<text dominant-baseline="central" text-anchor="start" style="font-size:13px;font-family:sans-serif;" xml:space="preserve" x="30" y="7" transform="translate(1060.9 152.5)" fill="#D8E1ED">Amorim matches</text>
<path d="M-1 0.5l128.6 0l0 13l-128.6 0Z" transform="translate(1060.9 152.5)" fill="none" pointer-events="visible" ecmeta_series_index="0" ecmeta_data_index="0" ecmeta_ssr_type="legend" class="zr0-cls-7"></path>
<path d="M0 7L25 7" transform="translate(1197.53 152.5)" fill="#000" stroke="#FF8A99" stroke-width="2" stroke-dasharray="8,4" stroke-linecap="butt" stroke-miterlimit="10" class="zr0-cls-0"></path>
<path d="M18.1 7A5.6 5.6 0 1 1 18.1 6.4A5.6 5.6 0 0 1 18.1 7" transform="translate(1197.53 152.5)" fill="#5070dd" class="zr0-cls-0"></path>
<text dominant-baseline="central" text-anchor="start" style="font-size:13px;font-family:sans-serif;" xml:space="preserve" x="30" y="7" transform="translate(1197.53 152.5)" fill="#D8E1ED">Amorim slope</text>
<path d="M-1 0.5l110.6 0l0 13l-110.6 0Z" transform="translate(1197.53 152.5)" fill="none" pointer-events="visible" ecmeta_series_index="1" ecmeta_data_index="1" ecmeta_ssr_type="legend" class="zr0-cls-7"></path>
<path d="M0 7L25 7" transform="translate(1316.09 152.5)" fill="#000" stroke="#F1C75B" stroke-width="2" stroke-linecap="butt" stroke-miterlimit="10" class="zr0-cls-0"></path>
<path d="M12.5 1.4L18.1 7L12.5 12.6L6.9 7Z" transform="translate(1316.09 152.5)" fill="#F1C75B" class="zr0-cls-0"></path>
<text dominant-baseline="central" text-anchor="start" style="font-size:13px;font-family:sans-serif;" xml:space="preserve" x="30" y="7" transform="translate(1316.09 152.5)" fill="#D8E1ED">Carrick matches</text>
<path d="M-1 0.5l125 0l0 13l-125 0Z" transform="translate(1316.09 152.5)" fill="none" pointer-events="visible" ecmeta_series_index="2" ecmeta_data_index="2" ecmeta_ssr_type="legend" class="zr0-cls-7"></path>
<path d="M0 7L25 7" transform="translate(1449.08 152.5)" fill="#000" stroke="#FFE08A" stroke-width="2" stroke-dasharray="8,4" stroke-linecap="butt" stroke-miterlimit="10" class="zr0-cls-0"></path>
<path d="M18.1 7A5.6 5.6 0 1 1 18.1 6.4A5.6 5.6 0 0 1 18.1 7" transform="translate(1449.08 152.5)" fill="#b6d634" class="zr0-cls-0"></path>
<text dominant-baseline="central" text-anchor="start" style="font-size:13px;font-family:sans-serif;" xml:space="preserve" x="30" y="7" transform="translate(1449.08 152.5)" fill="#D8E1ED">Carrick slope</text>
<path d="M-1 0.5l106.9 0l0 13l-106.9 0Z" transform="translate(1449.08 152.5)" fill="none" pointer-events="visible" ecmeta_series_index="3" ecmeta_data_index="3" ecmeta_ssr_type="legend" class="zr0-cls-7"></path>
<g clip-path="url(#zr0-c2)">
<path d="M88 562.7L133 562.7L178.1 562.7L223.1 562.9L268.1 562.9L313.1 562.9L358.2 563.2L403.2 563.2L448.2 563.2L493.3 563.4L538.3 563.4L583.3 563.4L628.3 563.4L673.4 563.7L718.4 563.7L763.4 563.7L808.5 564L853.5 564L898.5 564L943.6 564.2" fill="none" pointer-events="visible" stroke="#FF8A99" stroke-width="3" stroke-dasharray="12,6" stroke-linejoin="bevel" class="zr0-cls-4"></path>
</g>
<g clip-path="url(#zr0-c3)">
<path d="M988.6 535.1L1033.6 556.8L1078.6 578.6L1123.7 600.2L1168.7 622.1L1213.7 643.7L1258.8 665.4L1303.8 687.2L1348.8 708.8L1393.8 730.7L1438.9 752.3" fill="none" pointer-events="visible" stroke="#FFE08A" stroke-width="3" stroke-dasharray="12,6" stroke-linejoin="bevel" class="zr0-cls-4"></path>
</g>
<path d="M-5 -5l595.6 0l0 40l-595.6 0Z" transform="translate(61 39)" fill="rgb(0,0,0)" fill-opacity="0" stroke="#3c3c41" stroke-width="0" class="zr0-cls-0"></path>
<path d="M-5 -5l496.4 0l0 25l-496.4 0Z" transform="translate(61 85)" fill="rgb(0,0,0)" fill-opacity="0" stroke="#3c3c41" stroke-width="0" class="zr0-cls-0"></path>
<path d="M-5 -5l511.2 0l0 27l-511.2 0Z" transform="translate(61 121)" fill="rgb(0,0,0)" fill-opacity="0" stroke="#3c3c41" stroke-width="0" class="zr0-cls-0"></path>
<path d="M-5 -5l506.4 0l0 27l-506.4 0Z" transform="translate(61 151)" fill="rgb(0,0,0)" fill-opacity="0" stroke="#3c3c41" stroke-width="0" class="zr0-cls-0"></path>
<text dominant-baseline="central" text-anchor="start" style="font-size:30px;font-family:Helvetica Neue;font-weight:800;" xml:space="preserve" y="15" transform="translate(61 39)" fill="#F8F4EC">Manchester United Open-Play xG by Coach</text>
<text dominant-baseline="central" text-anchor="start" style="font-size:15px;font-family:Helvetica Neue;font-weight:500;" xml:space="preserve" y="7.5" transform="translate(61 85)" fill="#9FB0C6">Completed EPL matches only | Raw match values with regression slopes</text>
<text dominant-baseline="central" text-anchor="start" style="font-size:17px;font-family:Helvetica Neue;font-weight:700;" xml:space="preserve" y="8.5" transform="translate(61 121)" fill="#D74C5B">Amorim: 20 matches | avg 1.54 open-play xG | slope -0.000/match</text>
<text dominant-baseline="central" text-anchor="start" style="font-size:17px;font-family:Helvetica Neue;font-weight:700;" xml:space="preserve" y="8.5" transform="translate(61 151)" fill="#F1C75B">Carrick: 11 matches | avg 1.23 open-play xG | slope -0.084/match</text>
<defs >
<clipPath id="zr0-c0">
<path d="M87 187l1353 0l0 774l-1353 0Z" fill="#000" class="zr0-cls-1"></path>
</clipPath>
<clipPath id="zr0-c1">
<path d="M87 187l1353 0l0 774l-1353 0Z" fill="#000" class="zr0-cls-1"></path>
</clipPath>
<clipPath id="zr0-c2">
<path d="M86 186.5l1355 0l0 775l-1355 0Z" fill="#000" class="zr0-cls-1"></path>
</clipPath>
<clipPath id="zr0-c3">
<path d="M86 186.5l1355 0l0 775l-1355 0Z" fill="#000" class="zr0-cls-1"></path>
</clipPath>
</defs>
<style ><![CDATA[
.zr0-cls-0:hover {
pointer-events:none;
}
.zr0-cls-1:hover {
cursor:pointer;
fill:rgba(0,0,0,1);
}
.zr0-cls-2:hover {
cursor:pointer;
fill:rgba(236,83,100,0.1);
}
.zr0-cls-3:hover {
cursor:pointer;
fill:rgba(255,218,100,0.08);
}
.zr0-cls-4:hover {
cursor:pointer;
}
.zr0-cls-5:hover {
cursor:pointer;
fill:rgba(236,83,100,1);
}
.zr0-cls-6:hover {
cursor:pointer;
fill:rgba(255,218,100,1);
}
.zr0-cls-7:hover {
cursor:pointer;
fill:rgba(0,0,0,0);
}

]]>

</style>
</svg>