<svg width="1200" height="675" xmlns="http://www.w3.org/2000/svg" xmlns:xlink="http://www.w3.org/1999/xlink" version="1.1" baseProfile="full" viewBox="0 0 1200 675">
<rect width="1200" height="675" x="0" y="0" fill="#09111F"></rect>
<path d="M0 0l1200 0l0 675l-1200 0Z" fill="#09111F" class="zr0-cls-0"></path>
<path d="M74 34L1126 34A28 28 0 0 1 1154 62L1154 613A28 28 0 0 1 1126 641L74 641A28 28 0 0 1 46 613L46 62A28 28 0 0 1 74 34" fill="#0E1726" class="zr0-cls-1"></path>
<text dominant-baseline="central" text-anchor="start" style="font: 700 28px Helvetica Neue, Arial, sans-serif" xml:space="preserve" y="14" transform="translate(80 60)" fill="#F8F4EC">MANCHESTER UNITED VS ARSENAL: RECENT FORM</text>
<text dominant-baseline="central" text-anchor="start" style="font: 12px Helvetica Neue, Arial, sans-serif" xml:space="preserve" y="6" transform="translate(82 98)" fill="#94A3B8">LAST 5 LEAGUE MATCHES | UNDERSTAT FORM SNAPSHOT</text>
<path d="M102 138L546 138A24 24 0 0 1 570 162L570 562A24 24 0 0 1 546 586L102 586A24 24 0 0 1 78 562L78 162A24 24 0 0 1 102 138" fill="#101826" stroke="#1F2937" class="zr0-cls-2"></path>
<path d="M654 138L1098 138A24 24 0 0 1 1122 162L1122 562A24 24 0 0 1 1098 586L654 586A24 24 0 0 1 630 562L630 162A24 24 0 0 1 654 138" fill="#101826" stroke="#1F2937" class="zr0-cls-2"></path>
<text dominant-baseline="central" text-anchor="start" style="font: 700 24px Helvetica Neue, Arial, sans-serif" xml:space="preserve" y="12" transform="translate(110 170)" fill="#F8F4EC">MANCHESTER UNITED</text>
<text dominant-baseline="central" text-anchor="start" style="font: 700 24px Helvetica Neue, Arial, sans-serif" y="12" transform="translate(662 170)" fill="#F8F4EC">ARSENAL</text>
<path d="M127 214L221 214A17 17 0 0 1 238 231A17 17 0 0 1 221 248L127 248A17 17 0 0 1 110 231A17 17 0 0 1 127 214" fill="#172235" class="zr0-cls-3"></path>
<path d="M679 214L773 214A17 17 0 0 1 790 231A17 17 0 0 1 773 248L679 248A17 17 0 0 1 662 231A17 17 0 0 1 679 214" fill="#172235" class="zr0-cls-3"></path>
<text dominant-baseline="central" text-anchor="start" style="font: 700 13px Helvetica Neue, Arial, sans-serif" xml:space="preserve" y="6.5" transform="translate(128 223)" fill="#F8F4EC">W-D-L 3-1-1</text>
<text dominant-baseline="central" text-anchor="start" style="font: 700 13px Helvetica Neue, Arial, sans-serif" xml:space="preserve" y="6.5" transform="translate(680 223)" fill="#F8F4EC">W-D-L 4-1-0</text>
<text dominant-baseline="central" text-anchor="start" style="font: 12px Helvetica Neue, Arial, sans-serif" y="6" transform="translate(110 270)" fill="#94A3B8">POINTS</text>
<text dominant-baseline="central" text-anchor="start" style="font: 12px Helvetica Neue, Arial, sans-serif" y="6" transform="translate(662 270)" fill="#94A3B8">POINTS</text>
<text dominant-baseline="central" text-anchor="start" style="font: 700 62px Helvetica Neue, Arial, sans-serif" y="31" transform="translate(110 288)" fill="#FF6B57">10</text>
<text dominant-baseline="central" text-anchor="start" style="font: 700 62px Helvetica Neue, Arial, sans-serif" y="31" transform="translate(662 288)" fill="#2EC4B6">13</text>
<text dominant-baseline="central" text-anchor="start" style="font: 12px Helvetica Neue, Arial, sans-serif" y="6" transform="translate(110 384)" fill="#94A3B8">GF</text>
<text dominant-baseline="central" text-anchor="start" style="font: bold 13px Helvetica Neue, Arial, sans-serif" y="6.5" transform="translate(382 381)" fill="#F8F4EC">9</text>
<path d="M115 406L365 406A5 5 0 0 1 370 411A5 5 0 0 1 365 416L115 416A5 5 0 0 1 110 411A5 5 0 0 1 115 406" fill="#1E293B" class="zr0-cls-4"></path>
<path d="M115 406L317.7 406A5 5 0 0 1 322.7 411A5 5 0 0 1 317.7 416L115 416A5 5 0 0 1 110 411A5 5 0 0 1 115 406" fill="#FF6B57" class="zr0-cls-5"></path>
<text dominant-baseline="central" text-anchor="start" style="font: 12px Helvetica Neue, Arial, sans-serif" y="6" transform="translate(662 384)" fill="#94A3B8">GF</text>
<text dominant-baseline="central" text-anchor="start" style="font: bold 13px Helvetica Neue, Arial, sans-serif" y="6.5" transform="translate(934 381)" fill="#F8F4EC">11</text>
<path d="M667 406L917 406A5 5 0 0 1 922 411A5 5 0 0 1 917 416L667 416A5 5 0 0 1 662 411A5 5 0 0 1 667 406" fill="#1E293B" class="zr0-cls-4"></path>
<path d="M667 406L917 406A5 5 0 0 1 922 411A5 5 0 0 1 917 416L667 416A5 5 0 0 1 662 411A5 5 0 0 1 667 406" fill="#2EC4B6" class="zr0-cls-6"></path>
<text dominant-baseline="central" text-anchor="start" style="font: 12px Helvetica Neue, Arial, sans-serif" y="6" transform="translate(110 438)" fill="#94A3B8">GA</text>
<text dominant-baseline="central" text-anchor="start" style="font: bold 13px Helvetica Neue, Arial, sans-serif" y="6.5" transform="translate(382 435)" fill="#F8F4EC">6</text>
<path d="M115 460L365 460A5 5 0 0 1 370 465A5 5 0 0 1 365 470L115 470A5 5 0 0 1 110 465A5 5 0 0 1 115 460" fill="#1E293B" class="zr0-cls-4"></path>
<path d="M115 460L365 460A5 5 0 0 1 370 465A5 5 0 0 1 365 470L115 470A5 5 0 0 1 110 465A5 5 0 0 1 115 460" fill="#FF6B57" class="zr0-cls-5"></path>
<text dominant-baseline="central" text-anchor="start" style="font: 12px Helvetica Neue, Arial, sans-serif" y="6" transform="translate(662 438)" fill="#94A3B8">GA</text>
<text dominant-baseline="central" text-anchor="start" style="font: bold 13px Helvetica Neue, Arial, sans-serif" y="6.5" transform="translate(934 435)" fill="#F8F4EC">4</text>
<path d="M667 460L917 460A5 5 0 0 1 922 465A5 5 0 0 1 917 470L667 470A5 5 0 0 1 662 465A5 5 0 0 1 667 460" fill="#1E293B" class="zr0-cls-4"></path>
<path d="M667 460L830.3 460A5 5 0 0 1 835.3 465A5 5 0 0 1 830.3 470L667 470A5 5 0 0 1 662 465A5 5 0 0 1 667 460" fill="#2EC4B6" class="zr0-cls-6"></path>
<text dominant-baseline="central" text-anchor="start" style="font: 12px Helvetica Neue, Arial, sans-serif" y="6" transform="translate(110 492)" fill="#94A3B8">xG</text>
<text dominant-baseline="central" text-anchor="start" style="font: bold 13px Helvetica Neue, Arial, sans-serif" y="6.5" transform="translate(382 489)" fill="#F8F4EC">9.03</text>
<path d="M115 514L365 514A5 5 0 0 1 370 519A5 5 0 0 1 365 524L115 524A5 5 0 0 1 110 519A5 5 0 0 1 115 514" fill="#1E293B" class="zr0-cls-4"></path>
<path d="M115 514L352.9 514A5 5 0 0 1 357.9 519A5 5 0 0 1 352.9 524L115 524A5 5 0 0 1 110 519A5 5 0 0 1 115 514" fill="#FF6B57" class="zr0-cls-5"></path>
<text dominant-baseline="central" text-anchor="start" style="font: 12px Helvetica Neue, Arial, sans-serif" y="6" transform="translate(662 492)" fill="#94A3B8">xG</text>
<text dominant-baseline="central" text-anchor="start" style="font: bold 13px Helvetica Neue, Arial, sans-serif" y="6.5" transform="translate(934 489)" fill="#F8F4EC">9.47</text>
<path d="M667 514L917 514A5 5 0 0 1 922 519A5 5 0 0 1 917 524L667 524A5 5 0 0 1 662 519A5 5 0 0 1 667 514" fill="#1E293B" class="zr0-cls-4"></path>
<path d="M667 514L917 514A5 5 0 0 1 922 519A5 5 0 0 1 917 524L667 524A5 5 0 0 1 662 519A5 5 0 0 1 667 514" fill="#2EC4B6" class="zr0-cls-6"></path>
<text dominant-baseline="central" text-anchor="start" style="font: 12px Helvetica Neue, Arial, sans-serif" y="6" transform="translate(110 546)" fill="#94A3B8">xGA</text>
<text dominant-baseline="central" text-anchor="start" style="font: bold 13px Helvetica Neue, Arial, sans-serif" y="6.5" transform="translate(382 543)" fill="#F8F4EC">5.89</text>
<path d="M115 568L365 568A5 5 0 0 1 370 573A5 5 0 0 1 365 578L115 578A5 5 0 0 1 110 573A5 5 0 0 1 115 568" fill="#1E293B" class="zr0-cls-4"></path>
<path d="M115 568L365 568A5 5 0 0 1 370 573A5 5 0 0 1 365 578L115 578A5 5 0 0 1 110 573A5 5 0 0 1 115 568" fill="#FF6B57" class="zr0-cls-5"></path>
<text dominant-baseline="central" text-anchor="start" style="font: 12px Helvetica Neue, Arial, sans-serif" y="6" transform="translate(662 546)" fill="#94A3B8">xGA</text>
<text dominant-baseline="central" text-anchor="start" style="font: bold 13px Helvetica Neue, Arial, sans-serif" y="6.5" transform="translate(934 543)" fill="#F8F4EC">4.01</text>
<path d="M667 568L917 568A5 5 0 0 1 922 573A5 5 0 0 1 917 578L667 578A5 5 0 0 1 662 573A5 5 0 0 1 667 568" fill="#1E293B" class="zr0-cls-4"></path>
<path d="M667 568L834 568A5 5 0 0 1 839 573A5 5 0 0 1 834 578L667 578A5 5 0 0 1 662 573A5 5 0 0 1 667 568" fill="#2EC4B6" class="zr0-cls-6"></path>
<text dominant-baseline="central" text-anchor="start" style="font: 14px Helvetica Neue, Arial, sans-serif" xml:space="preserve" y="7" transform="translate(80 603)" fill="#F8F4EC">Manchester United carry a non-penalty xG difference of 17.38, compared with Arsenal at 33.42.</text>
<text dominant-baseline="central" text-anchor="start" style="font: 13px Helvetica Neue, Arial, sans-serif" xml:space="preserve" y="6.5" transform="translate(80 625)" fill="#94A3B8">Recent five-match output: Manchester United have 10 points and 9-6 goals; Arsenal have 13 points and 11-4.</text>
<style ><![CDATA[
.zr0-cls-0:hover {
cursor:pointer;
fill:rgba(9,18,34,1);
}
.zr0-cls-1:hover {
cursor:pointer;
fill:rgba(15,25,41,1);
}
.zr0-cls-2:hover {
cursor:pointer;
fill:rgba(17,26,41,1);
}
.zr0-cls-3:hover {
cursor:pointer;
fill:rgba(25,37,58,1);
}
.zr0-cls-4:hover {
cursor:pointer;
fill:rgba(33,45,64,1);
}
.zr0-cls-5:hover {
cursor:pointer;
fill:rgba(255,117,95,1);
}
.zr0-cls-6:hover {
cursor:pointer;
fill:rgba(50,215,200,1);
}

]]>

</style>
</svg>