<svg width="1200" height="675" xmlns="http://www.w3.org/2000/svg" xmlns:xlink="http://www.w3.org/1999/xlink" version="1.1" baseProfile="full" viewBox="0 0 1200 675">
<rect width="1200" height="675" x="0" y="0" fill="#F7F3EA"></rect>
<text dominant-baseline="central" text-anchor="start" style="font: bold 13px Georgia, Times New Roman, serif" xml:space="preserve" y="6.5" transform="translate(220 78)" fill="#111827">W-D-L 3-1-1</text>
<text dominant-baseline="central" text-anchor="start" style="font: bold 13px Georgia, Times New Roman, serif" xml:space="preserve" y="6.5" transform="translate(690 78)" fill="#111827">W-D-L 4-1-0</text>
<path d="M64 631.5L1176 631.5" fill="none" pointer-events="visible" stroke="#dbdee4" class="zr0-cls-0"></path>
<path d="M64 526.5L1176 526.5" fill="none" pointer-events="visible" stroke="#dbdee4" class="zr0-cls-0"></path>
<path d="M64 422.5L1176 422.5" fill="none" pointer-events="visible" stroke="#dbdee4" class="zr0-cls-0"></path>
<path d="M64 317.5L1176 317.5" fill="none" pointer-events="visible" stroke="#dbdee4" class="zr0-cls-0"></path>
<path d="M64 212.5L1176 212.5" fill="none" pointer-events="visible" stroke="#dbdee4" class="zr0-cls-0"></path>
<path d="M64 108.5L1176 108.5" fill="none" pointer-events="visible" stroke="#dbdee4" class="zr0-cls-0"></path>
<path d="M64 631.5L1176 631.5" fill="none" pointer-events="visible" stroke="#54555a" stroke-linecap="round" class="zr0-cls-0"></path>
<text dominant-baseline="central" text-anchor="end" style="font-size:12px;font-family:sans-serif;" transform="translate(56 631)" fill="#54555a">0</text>
<text dominant-baseline="central" text-anchor="end" style="font-size:12px;font-family:sans-serif;" transform="translate(56 526.4)" fill="#54555a">3</text>
<text dominant-baseline="central" text-anchor="end" style="font-size:12px;font-family:sans-serif;" transform="translate(56 421.8)" fill="#54555a">6</text>
<text dominant-baseline="central" text-anchor="end" style="font-size:12px;font-family:sans-serif;" transform="translate(56 317.2)" fill="#54555a">9</text>
<text dominant-baseline="central" text-anchor="end" style="font-size:12px;font-family:sans-serif;" transform="translate(56 212.6)" fill="#54555a">12</text>
<text dominant-baseline="central" text-anchor="end" style="font-size:12px;font-family:sans-serif;" transform="translate(56 108)" fill="#54555a">15</text>
<text dominant-baseline="central" text-anchor="middle" style="font-size:12px;font-family:sans-serif;" xml:space="preserve" y="6" transform="translate(342 639)" fill="#54555a">Manchester United</text>
<text dominant-baseline="central" text-anchor="middle" style="font-size:12px;font-family:sans-serif;" y="6" transform="translate(898 639)" fill="#54555a">Arsenal</text>
<path d="M293.4 631l18 0l0 -348.7l-18 0Z" fill="#E76F51" ecmeta_series_index="0" ecmeta_data_index="0" ecmeta_ssr_type="chart" class="zr0-cls-1 zr0-cls-2"></path>
<path d="M849.4 631l18 0l0 -453.3l-18 0Z" fill="#E76F51" ecmeta_series_index="0" ecmeta_data_index="1" ecmeta_ssr_type="chart" class="zr0-cls-3 zr0-cls-2"></path>
<path d="M313.2 631l18 0l0 -313.8l-18 0Z" fill="#2A9D8F" ecmeta_series_index="1" ecmeta_data_index="0" ecmeta_ssr_type="chart" class="zr0-cls-4 zr0-cls-5"></path>
<path d="M869.2 631l18 0l0 -383.5l-18 0Z" fill="#2A9D8F" ecmeta_series_index="1" ecmeta_data_index="1" ecmeta_ssr_type="chart" class="zr0-cls-6 zr0-cls-5"></path>
<path d="M333 631l18 0l0 -209.2l-18 0Z" fill="#E9C46A" ecmeta_series_index="2" ecmeta_data_index="0" ecmeta_ssr_type="chart" class="zr0-cls-7 zr0-cls-8"></path>
<path d="M889 631l18 0l0 -139.5l-18 0Z" fill="#E9C46A" ecmeta_series_index="2" ecmeta_data_index="1" ecmeta_ssr_type="chart" class="zr0-cls-9 zr0-cls-8"></path>
<path d="M352.8 631l18 0l0 -314.8l-18 0Z" fill="#264653" ecmeta_series_index="3" ecmeta_data_index="0" ecmeta_ssr_type="chart" class="zr0-cls-10 zr0-cls-11"></path>
<path d="M908.8 631l18 0l0 -330.2l-18 0Z" fill="#264653" ecmeta_series_index="3" ecmeta_data_index="1" ecmeta_ssr_type="chart" class="zr0-cls-12 zr0-cls-11"></path>
<path d="M372.6 631l18 0l0 -205.4l-18 0Z" fill="#E76F51" ecmeta_series_index="4" ecmeta_data_index="0" ecmeta_ssr_type="chart" class="zr0-cls-13 zr0-cls-2"></path>
<path d="M928.6 631l18 0l0 -139.8l-18 0Z" fill="#E76F51" ecmeta_series_index="4" ecmeta_data_index="1" ecmeta_ssr_type="chart" class="zr0-cls-14 zr0-cls-2"></path>
<path d="M-5 -5l574.7 0l0 24l-574.7 0Z" transform="translate(317.66 47)" fill="rgb(0,0,0)" fill-opacity="0" stroke="#b7b9be" stroke-width="0" class="zr0-cls-0"></path>
<path d="M3.5 0L21.5 0A3.5 3.5 0 0 1 25 3.5L25 10.5A3.5 3.5 0 0 1 21.5 14L3.5 14A3.5 3.5 0 0 1 0 10.5L0 3.5A3.5 3.5 0 0 1 3.5 0" transform="translate(317.66 47)" fill="#E76F51" ecmeta_series_index="0" ecmeta_data_index="0" ecmeta_ssr_type="legend" ecmeta_silent="true" class="zr0-cls-0"></path>
<text dominant-baseline="central" text-anchor="start" style="font-size:12px;font-family:sans-serif;" x="30" y="7" transform="translate(317.66 47)" fill="#54555a">points_last_5</text>
<path d="M0 0l101 0l0 14l-101 0Z" transform="translate(317.66 47)" fill="none" pointer-events="visible" ecmeta_series_index="0" ecmeta_data_index="0" ecmeta_ssr_type="legend" class="zr0-cls-15"></path>
<path d="M3.5 0L21.5 0A3.5 3.5 0 0 1 25 3.5L25 10.5A3.5 3.5 0 0 1 21.5 14L3.5 14A3.5 3.5 0 0 1 0 10.5L0 3.5A3.5 3.5 0 0 1 3.5 0" transform="translate(426.7 47)" fill="#2A9D8F" ecmeta_series_index="1" ecmeta_data_index="1" ecmeta_ssr_type="legend" ecmeta_silent="true" class="zr0-cls-0"></path>
<text dominant-baseline="central" text-anchor="start" style="font-size:12px;font-family:sans-serif;" x="30" y="7" transform="translate(426.7 47)" fill="#54555a">goals_for_last_5</text>
<path d="M0 0l118.4 0l0 14l-118.4 0Z" transform="translate(426.7 47)" fill="none" pointer-events="visible" ecmeta_series_index="1" ecmeta_data_index="1" ecmeta_ssr_type="legend" class="zr0-cls-15"></path>
<path d="M3.5 0L21.5 0A3.5 3.5 0 0 1 25 3.5L25 10.5A3.5 3.5 0 0 1 21.5 14L3.5 14A3.5 3.5 0 0 1 0 10.5L0 3.5A3.5 3.5 0 0 1 3.5 0" transform="translate(553.14 47)" fill="#E9C46A" ecmeta_series_index="2" ecmeta_data_index="2" ecmeta_ssr_type="legend" ecmeta_silent="true" class="zr0-cls-0"></path>
<text dominant-baseline="central" text-anchor="start" style="font-size:12px;font-family:sans-serif;" x="30" y="7" transform="translate(553.14 47)" fill="#54555a">goals_against_last_5</text>
<path d="M0 0l143.3 0l0 14l-143.3 0Z" transform="translate(553.14 47)" fill="none" pointer-events="visible" ecmeta_series_index="2" ecmeta_data_index="2" ecmeta_ssr_type="legend" class="zr0-cls-15"></path>
<path d="M3.5 0L21.5 0A3.5 3.5 0 0 1 25 3.5L25 10.5A3.5 3.5 0 0 1 21.5 14L3.5 14A3.5 3.5 0 0 1 0 10.5L0 3.5A3.5 3.5 0 0 1 3.5 0" transform="translate(704.42 47)" fill="#264653" ecmeta_series_index="3" ecmeta_data_index="3" ecmeta_ssr_type="legend" ecmeta_silent="true" class="zr0-cls-0"></path>
<text dominant-baseline="central" text-anchor="start" style="font-size:12px;font-family:sans-serif;" x="30" y="7" transform="translate(704.42 47)" fill="#54555a">xg_last_5</text>
<path d="M0 0l81.6 0l0 14l-81.6 0Z" transform="translate(704.42 47)" fill="none" pointer-events="visible" ecmeta_series_index="3" ecmeta_data_index="3" ecmeta_ssr_type="legend" class="zr0-cls-15"></path>
<path d="M3.5 0L21.5 0A3.5 3.5 0 0 1 25 3.5L25 10.5A3.5 3.5 0 0 1 21.5 14L3.5 14A3.5 3.5 0 0 1 0 10.5L0 3.5A3.5 3.5 0 0 1 3.5 0" transform="translate(794.02 47)" fill="#E76F51" ecmeta_series_index="4" ecmeta_data_index="4" ecmeta_ssr_type="legend" ecmeta_silent="true" class="zr0-cls-0"></path>
<text dominant-baseline="central" text-anchor="start" style="font-size:12px;font-family:sans-serif;" x="30" y="7" transform="translate(794.02 47)" fill="#54555a">xga_last_5</text>
<path d="M0 0l88.3 0l0 14l-88.3 0Z" transform="translate(794.02 47)" fill="none" pointer-events="visible" ecmeta_series_index="4" ecmeta_data_index="4" ecmeta_ssr_type="legend" class="zr0-cls-15"></path>
<path d="M-5 -5l352.2 0l0 28l-352.2 0Z" transform="translate(25 21)" fill="rgb(0,0,0)" fill-opacity="0" stroke="#3c3c41" stroke-width="0" class="zr0-cls-0"></path>
<text dominant-baseline="central" text-anchor="start" style="font-size:18px;font-family:Georgia, Times New Roman, serif;font-weight:bold;" xml:space="preserve" y="9" transform="translate(25 21)" fill="#111827">Manchester United vs Arsenal: recent form</text>
<style ><![CDATA[
.zr0-cls-0:hover {
pointer-events:none;
}
.zr0-cls-1 {
animation:zr0-ani-0 1s cubic-bezier(0.65,0,0.35,1) both;
}
.zr0-cls-2:hover {
cursor:pointer;
fill:rgba(254,122,89,1);
}
.zr0-cls-3 {
animation:zr0-ani-1 1s cubic-bezier(0.65,0,0.35,1) both;
}
.zr0-cls-4 {
animation:zr0-ani-2 1s cubic-bezier(0.65,0,0.35,1) both;
}
.zr0-cls-5:hover {
cursor:pointer;
fill:rgba(46,172,157,1);
}
.zr0-cls-6 {
animation:zr0-ani-3 1s cubic-bezier(0.65,0,0.35,1) both;
}
.zr0-cls-7 {
animation:zr0-ani-4 1s cubic-bezier(0.65,0,0.35,1) both;
}
.zr0-cls-8:hover {
cursor:pointer;
fill:rgba(255,215,116,1);
}
.zr0-cls-9 {
animation:zr0-ani-5 1s cubic-bezier(0.65,0,0.35,1) both;
}
.zr0-cls-10 {
animation:zr0-ani-6 1s cubic-bezier(0.65,0,0.35,1) both;
}
.zr0-cls-11:hover {
cursor:pointer;
fill:rgba(41,77,91,1);
}
.zr0-cls-12 {
animation:zr0-ani-7 1s cubic-bezier(0.65,0,0.35,1) both;
}
.zr0-cls-13 {
animation:zr0-ani-8 1s cubic-bezier(0.65,0,0.35,1) both;
}
.zr0-cls-14 {
animation:zr0-ani-9 1s cubic-bezier(0.65,0,0.35,1) both;
}
.zr0-cls-15:hover {
cursor:pointer;
fill:rgba(0,0,0,0);
}
@keyframes zr0-ani-0 {
0% {
d:path("M293.4 631l18 0l0 0l-18 0Z");
}
100% {
d:path("M293.4 631l18 0l0 -348.7l-18 0Z");
}
}
@keyframes zr0-ani-1 {
0% {
d:path("M849.4 631l18 0l0 0l-18 0Z");
}
100% {
d:path("M849.4 631l18 0l0 -453.3l-18 0Z");
}
}
@keyframes zr0-ani-2 {
0% {
d:path("M313.2 631l18 0l0 0l-18 0Z");
}
100% {
d:path("M313.2 631l18 0l0 -313.8l-18 0Z");
}
}
@keyframes zr0-ani-3 {
0% {
d:path("M869.2 631l18 0l0 0l-18 0Z");
}
100% {
d:path("M869.2 631l18 0l0 -383.5l-18 0Z");
}
}
@keyframes zr0-ani-4 {
0% {
d:path("M333 631l18 0l0 0l-18 0Z");
}
100% {
d:path("M333 631l18 0l0 -209.2l-18 0Z");
}
}
@keyframes zr0-ani-5 {
0% {
d:path("M889 631l18 0l0 0l-18 0Z");
}
100% {
d:path("M889 631l18 0l0 -139.5l-18 0Z");
}
}
@keyframes zr0-ani-6 {
0% {
d:path("M352.8 631l18 0l0 0l-18 0Z");
}
100% {
d:path("M352.8 631l18 0l0 -314.8l-18 0Z");
}
}
@keyframes zr0-ani-7 {
0% {
d:path("M908.8 631l18 0l0 0l-18 0Z");
}
100% {
d:path("M908.8 631l18 0l0 -330.2l-18 0Z");
}
}
@keyframes zr0-ani-8 {
0% {
d:path("M372.6 631l18 0l0 0l-18 0Z");
}
100% {
d:path("M372.6 631l18 0l0 -205.4l-18 0Z");
}
}
@keyframes zr0-ani-9 {
0% {
d:path("M928.6 631l18 0l0 0l-18 0Z");
}
100% {
d:path("M928.6 631l18 0l0 -139.8l-18 0Z");
}
}
]]>

</style>
</svg>