<svg width="1200" height="675" xmlns="http://www.w3.org/2000/svg" xmlns:xlink="http://www.w3.org/1999/xlink" version="1.1" baseProfile="full" viewBox="0 0 1200 675">
<rect width="1200" height="675" x="0" y="0" fill="#F7F3EA"></rect>
<path d="M48 631.5L1176 631.5" fill="none" pointer-events="visible" stroke="#dbdee4" class="zr0-cls-0"></path>
<path d="M48 551.5L1176 551.5" fill="none" pointer-events="visible" stroke="#dbdee4" class="zr0-cls-0"></path>
<path d="M48 471.5L1176 471.5" fill="none" pointer-events="visible" stroke="#dbdee4" class="zr0-cls-0"></path>
<path d="M48 391.5L1176 391.5" fill="none" pointer-events="visible" stroke="#dbdee4" class="zr0-cls-0"></path>
<path d="M48 311.5L1176 311.5" fill="none" pointer-events="visible" stroke="#dbdee4" class="zr0-cls-0"></path>
<path d="M48 231.5L1176 231.5" fill="none" pointer-events="visible" stroke="#dbdee4" class="zr0-cls-0"></path>
<path d="M48 152.5L1176 152.5" fill="none" pointer-events="visible" stroke="#dbdee4" class="zr0-cls-0"></path>
<path d="M48 72.5L1176 72.5" fill="none" pointer-events="visible" stroke="#dbdee4" class="zr0-cls-0"></path>
<path d="M48 631.5L1176 631.5" fill="none" pointer-events="visible" stroke="#54555a" stroke-linecap="round" class="zr0-cls-0"></path>
<text dominant-baseline="central" text-anchor="end" style="font-size:12px;font-family:sans-serif;" transform="translate(40 631)" fill="#54555a">0</text>
<text dominant-baseline="central" text-anchor="end" style="font-size:12px;font-family:sans-serif;" transform="translate(40 551.1429)" fill="#54555a">50</text>
<text dominant-baseline="central" text-anchor="end" style="font-size:12px;font-family:sans-serif;" transform="translate(40 471.2857)" fill="#54555a">100</text>
<text dominant-baseline="central" text-anchor="end" style="font-size:12px;font-family:sans-serif;" transform="translate(40 391.4286)" fill="#54555a">150</text>
<text dominant-baseline="central" text-anchor="end" style="font-size:12px;font-family:sans-serif;" transform="translate(40 311.5714)" fill="#54555a">200</text>
<text dominant-baseline="central" text-anchor="end" style="font-size:12px;font-family:sans-serif;" transform="translate(40 231.7143)" fill="#54555a">250</text>
<text dominant-baseline="central" text-anchor="end" style="font-size:12px;font-family:sans-serif;" transform="translate(40 151.8571)" fill="#54555a">300</text>
<text dominant-baseline="central" text-anchor="end" style="font-size:12px;font-family:sans-serif;" transform="translate(40 72)" fill="#54555a">350</text>
<text dominant-baseline="central" text-anchor="middle" style="font-size:12px;font-family:sans-serif;" y="6" transform="translate(236 639)" fill="#54555a">OpenPlay</text>
<text dominant-baseline="central" text-anchor="middle" style="font-size:12px;font-family:sans-serif;" y="6" transform="translate(612 639)" fill="#54555a">shotPenaltyArea</text>
<text dominant-baseline="central" text-anchor="middle" style="font-size:12px;font-family:sans-serif;" y="6" transform="translate(988 639)" fill="#54555a">76+</text>
<path d="M198.2 631l36 0l0 -70.9l-36 0Z" fill="#E76F51" ecmeta_series_index="0" ecmeta_data_index="0" ecmeta_ssr_type="chart" class="zr0-cls-1 zr0-cls-2"></path>
<path d="M574.2 631l36 0l0 -55.6l-36 0Z" fill="#E76F51" ecmeta_series_index="0" ecmeta_data_index="1" ecmeta_ssr_type="chart" class="zr0-cls-3 zr0-cls-2"></path>
<path d="M950.2 631l36 0l0 -24.1l-36 0Z" fill="#E76F51" ecmeta_series_index="0" ecmeta_data_index="2" ecmeta_ssr_type="chart" class="zr0-cls-4 zr0-cls-2"></path>
<path d="M237.8 631l36 0l0 -535l-36 0Z" fill="#2A9D8F" ecmeta_series_index="1" ecmeta_data_index="0" ecmeta_ssr_type="chart" class="zr0-cls-5 zr0-cls-6"></path>
<path d="M613.8 631l36 0l0 -431.2l-36 0Z" fill="#2A9D8F" ecmeta_series_index="1" ecmeta_data_index="1" ecmeta_ssr_type="chart" class="zr0-cls-7 zr0-cls-6"></path>
<path d="M989.8 631l36 0l0 -142.1l-36 0Z" fill="#2A9D8F" ecmeta_series_index="1" ecmeta_data_index="2" ecmeta_ssr_type="chart" class="zr0-cls-8 zr0-cls-6"></path>
<path d="M-5 -5l119.5 0l0 24l-119.5 0Z" transform="translate(545.24 47)" fill="rgb(0,0,0)" fill-opacity="0" stroke="#b7b9be" stroke-width="0" class="zr0-cls-0"></path>
<path d="M3.5 0L21.5 0A3.5 3.5 0 0 1 25 3.5L25 10.5A3.5 3.5 0 0 1 21.5 14L3.5 14A3.5 3.5 0 0 1 0 10.5L0 3.5A3.5 3.5 0 0 1 3.5 0" transform="translate(545.24 47)" fill="#E76F51" ecmeta_series_index="0" ecmeta_data_index="0" ecmeta_ssr_type="legend" ecmeta_silent="true" class="zr0-cls-0"></path>
<text dominant-baseline="central" text-anchor="start" style="font-size:12px;font-family:sans-serif;" x="30" y="7" transform="translate(545.24 47)" fill="#54555a">xg</text>
<path d="M0 0l42.7 0l0 14l-42.7 0Z" transform="translate(545.24 47)" fill="none" pointer-events="visible" ecmeta_series_index="0" ecmeta_data_index="0" ecmeta_ssr_type="legend" class="zr0-cls-9"></path>
<path d="M3.5 0L21.5 0A3.5 3.5 0 0 1 25 3.5L25 10.5A3.5 3.5 0 0 1 21.5 14L3.5 14A3.5 3.5 0 0 1 0 10.5L0 3.5A3.5 3.5 0 0 1 3.5 0" transform="translate(595.96 47)" fill="#2A9D8F" ecmeta_series_index="1" ecmeta_data_index="1" ecmeta_ssr_type="legend" ecmeta_silent="true" class="zr0-cls-0"></path>
<text dominant-baseline="central" text-anchor="start" style="font-size:12px;font-family:sans-serif;" x="30" y="7" transform="translate(595.96 47)" fill="#54555a">shots</text>
<path d="M0 0l58.8 0l0 14l-58.8 0Z" transform="translate(595.96 47)" fill="none" pointer-events="visible" ecmeta_series_index="1" ecmeta_data_index="1" ecmeta_ssr_type="legend" class="zr0-cls-9"></path>
<path d="M-5 -5l193.8 0l0 28l-193.8 0Z" transform="translate(25 21)" fill="rgb(0,0,0)" fill-opacity="0" stroke="#3c3c41" stroke-width="0" class="zr0-cls-0"></path>
<text dominant-baseline="central" text-anchor="start" style="font-size:18px;font-family:Georgia, Times New Roman, serif;font-weight:bold;" xml:space="preserve" y="9" transform="translate(25 21)" fill="#111827">Arsenal: chance profile</text>
<style ><![CDATA[
.zr0-cls-0:hover {
pointer-events:none;
}
.zr0-cls-1 {
animation:zr0-ani-0 1s cubic-bezier(0.65,0,0.35,1) both;
}
.zr0-cls-2:hover {
cursor:pointer;
fill:rgba(254,122,89,1);
}
.zr0-cls-3 {
animation:zr0-ani-1 1s cubic-bezier(0.65,0,0.35,1) both;
}
.zr0-cls-4 {
animation:zr0-ani-2 1s cubic-bezier(0.65,0,0.35,1) both;
}
.zr0-cls-5 {
animation:zr0-ani-3 1s cubic-bezier(0.65,0,0.35,1) both;
}
.zr0-cls-6:hover {
cursor:pointer;
fill:rgba(46,172,157,1);
}
.zr0-cls-7 {
animation:zr0-ani-4 1s cubic-bezier(0.65,0,0.35,1) both;
}
.zr0-cls-8 {
animation:zr0-ani-5 1s cubic-bezier(0.65,0,0.35,1) both;
}
.zr0-cls-9:hover {
cursor:pointer;
fill:rgba(0,0,0,0);
}
@keyframes zr0-ani-0 {
0% {
d:path("M198.2 631l36 0l0 0l-36 0Z");
}
100% {
d:path("M198.2 631l36 0l0 -70.9l-36 0Z");
}
}
@keyframes zr0-ani-1 {
0% {
d:path("M574.2 631l36 0l0 0l-36 0Z");
}
100% {
d:path("M574.2 631l36 0l0 -55.6l-36 0Z");
}
}
@keyframes zr0-ani-2 {
0% {
d:path("M950.2 631l36 0l0 0l-36 0Z");
}
100% {
d:path("M950.2 631l36 0l0 -24.1l-36 0Z");
}
}
@keyframes zr0-ani-3 {
0% {
d:path("M237.8 631l36 0l0 0l-36 0Z");
}
100% {
d:path("M237.8 631l36 0l0 -535l-36 0Z");
}
}
@keyframes zr0-ani-4 {
0% {
d:path("M613.8 631l36 0l0 0l-36 0Z");
}
100% {
d:path("M613.8 631l36 0l0 -431.2l-36 0Z");
}
}
@keyframes zr0-ani-5 {
0% {
d:path("M989.8 631l36 0l0 0l-36 0Z");
}
100% {
d:path("M989.8 631l36 0l0 -142.1l-36 0Z");
}
}
]]>

</style>
</svg>